G04 #@! TF.GenerationSoftware,KiCad,Pcbnew,5.1.8-db9833491~87~ubuntu20.04.1*
G04 #@! TF.CreationDate,2020-11-19T11:04:08+01:00*
G04 #@! TF.ProjectId,odie,6f646965-2e6b-4696-9361-645f70636258,v1.0*
G04 #@! TF.SameCoordinates,Original*
G04 #@! TF.FileFunction,Legend,Top*
G04 #@! TF.FilePolarity,Positive*
%FSLAX46Y46*%
G04 Gerber Fmt 4.6, Leading zero omitted, Abs format (unit mm)*
G04 Created by KiCad (PCBNEW 5.1.8-db9833491~87~ubuntu20.04.1) date 2020-11-19 11:04:08*
%MOMM*%
%LPD*%
G01*
G04 APERTURE LIST*
%ADD10C,0.300000*%
%ADD11C,0.120000*%
%ADD12C,0.150000*%
G04 APERTURE END LIST*
D10*
X152078571Y-123562857D02*
X153078571Y-123205714D01*
X152078571Y-122848571D01*
X153007142Y-121634285D02*
X153078571Y-121777142D01*
X153078571Y-122062857D01*
X153007142Y-122205714D01*
X152935714Y-122277142D01*
X152792857Y-122348571D01*
X152364285Y-122348571D01*
X152221428Y-122277142D01*
X152150000Y-122205714D01*
X152078571Y-122062857D01*
X152078571Y-121777142D01*
X152150000Y-121634285D01*
X153007142Y-120348571D02*
X153078571Y-120491428D01*
X153078571Y-120777142D01*
X153007142Y-120920000D01*
X152935714Y-120991428D01*
X152792857Y-121062857D01*
X152364285Y-121062857D01*
X152221428Y-120991428D01*
X152150000Y-120920000D01*
X152078571Y-120777142D01*
X152078571Y-120491428D01*
X152150000Y-120348571D01*
X151824571Y-133722857D02*
X152824571Y-133365714D01*
X151824571Y-133008571D01*
X152753142Y-131794285D02*
X152824571Y-131937142D01*
X152824571Y-132222857D01*
X152753142Y-132365714D01*
X152681714Y-132437142D01*
X152538857Y-132508571D01*
X152110285Y-132508571D01*
X151967428Y-132437142D01*
X151896000Y-132365714D01*
X151824571Y-132222857D01*
X151824571Y-131937142D01*
X151896000Y-131794285D01*
X152753142Y-130508571D02*
X152824571Y-130651428D01*
X152824571Y-130937142D01*
X152753142Y-131080000D01*
X152681714Y-131151428D01*
X152538857Y-131222857D01*
X152110285Y-131222857D01*
X151967428Y-131151428D01*
X151896000Y-131080000D01*
X151824571Y-130937142D01*
X151824571Y-130651428D01*
X151896000Y-130508571D01*
X145367142Y-135846000D02*
X145438571Y-135703142D01*
X145438571Y-135417428D01*
X145367142Y-135274571D01*
X145224285Y-135203142D01*
X145152857Y-135203142D01*
X145010000Y-135274571D01*
X144938571Y-135417428D01*
X144938571Y-135631714D01*
X144867142Y-135774571D01*
X144724285Y-135846000D01*
X144652857Y-135846000D01*
X144510000Y-135774571D01*
X144438571Y-135631714D01*
X144438571Y-135417428D01*
X144510000Y-135274571D01*
X144438571Y-134703142D02*
X145438571Y-134417428D01*
X144724285Y-134131714D01*
X145438571Y-133846000D01*
X144438571Y-133560285D01*
X145367142Y-132346000D02*
X145438571Y-132488857D01*
X145438571Y-132774571D01*
X145367142Y-132917428D01*
X145295714Y-132988857D01*
X145152857Y-133060285D01*
X144724285Y-133060285D01*
X144581428Y-132988857D01*
X144510000Y-132917428D01*
X144438571Y-132774571D01*
X144438571Y-132488857D01*
X144510000Y-132346000D01*
X145438571Y-131488857D02*
X145367142Y-131631714D01*
X145224285Y-131703142D01*
X143938571Y-131703142D01*
X145438571Y-130917428D02*
X143938571Y-130917428D01*
X144867142Y-130774571D02*
X145438571Y-130346000D01*
X144438571Y-130346000D02*
X145010000Y-130917428D01*
X147927142Y-135917428D02*
X147998571Y-135774571D01*
X147998571Y-135488857D01*
X147927142Y-135346000D01*
X147784285Y-135274571D01*
X147712857Y-135274571D01*
X147570000Y-135346000D01*
X147498571Y-135488857D01*
X147498571Y-135703142D01*
X147427142Y-135846000D01*
X147284285Y-135917428D01*
X147212857Y-135917428D01*
X147070000Y-135846000D01*
X146998571Y-135703142D01*
X146998571Y-135488857D01*
X147070000Y-135346000D01*
X146998571Y-134774571D02*
X147998571Y-134488857D01*
X147284285Y-134203142D01*
X147998571Y-133917428D01*
X146998571Y-133631714D01*
X147998571Y-132417428D02*
X146498571Y-132417428D01*
X147927142Y-132417428D02*
X147998571Y-132560285D01*
X147998571Y-132846000D01*
X147927142Y-132988857D01*
X147855714Y-133060285D01*
X147712857Y-133131714D01*
X147284285Y-133131714D01*
X147141428Y-133060285D01*
X147070000Y-132988857D01*
X146998571Y-132846000D01*
X146998571Y-132560285D01*
X147070000Y-132417428D01*
X147998571Y-131703142D02*
X146998571Y-131703142D01*
X146498571Y-131703142D02*
X146570000Y-131774571D01*
X146641428Y-131703142D01*
X146570000Y-131631714D01*
X146498571Y-131703142D01*
X146641428Y-131703142D01*
X147998571Y-130774571D02*
X147927142Y-130917428D01*
X147855714Y-130988857D01*
X147712857Y-131060285D01*
X147284285Y-131060285D01*
X147141428Y-130988857D01*
X147070000Y-130917428D01*
X146998571Y-130774571D01*
X146998571Y-130560285D01*
X147070000Y-130417428D01*
X147141428Y-130346000D01*
X147284285Y-130274571D01*
X147712857Y-130274571D01*
X147855714Y-130346000D01*
X147927142Y-130417428D01*
X147998571Y-130560285D01*
X147998571Y-130774571D01*
X149538571Y-122955714D02*
X150752857Y-122955714D01*
X150895714Y-123027142D01*
X150967142Y-123098571D01*
X151038571Y-123241428D01*
X151038571Y-123455714D01*
X150967142Y-123598571D01*
X150467142Y-122955714D02*
X150538571Y-123098571D01*
X150538571Y-123384285D01*
X150467142Y-123527142D01*
X150395714Y-123598571D01*
X150252857Y-123670000D01*
X149824285Y-123670000D01*
X149681428Y-123598571D01*
X149610000Y-123527142D01*
X149538571Y-123384285D01*
X149538571Y-123098571D01*
X149610000Y-122955714D01*
X149538571Y-122241428D02*
X150538571Y-122241428D01*
X149681428Y-122241428D02*
X149610000Y-122170000D01*
X149538571Y-122027142D01*
X149538571Y-121812857D01*
X149610000Y-121670000D01*
X149752857Y-121598571D01*
X150538571Y-121598571D01*
X150538571Y-120241428D02*
X149038571Y-120241428D01*
X150467142Y-120241428D02*
X150538571Y-120384285D01*
X150538571Y-120670000D01*
X150467142Y-120812857D01*
X150395714Y-120884285D01*
X150252857Y-120955714D01*
X149824285Y-120955714D01*
X149681428Y-120884285D01*
X149610000Y-120812857D01*
X149538571Y-120670000D01*
X149538571Y-120384285D01*
X149610000Y-120241428D01*
X149538571Y-133115714D02*
X150752857Y-133115714D01*
X150895714Y-133187142D01*
X150967142Y-133258571D01*
X151038571Y-133401428D01*
X151038571Y-133615714D01*
X150967142Y-133758571D01*
X150467142Y-133115714D02*
X150538571Y-133258571D01*
X150538571Y-133544285D01*
X150467142Y-133687142D01*
X150395714Y-133758571D01*
X150252857Y-133830000D01*
X149824285Y-133830000D01*
X149681428Y-133758571D01*
X149610000Y-133687142D01*
X149538571Y-133544285D01*
X149538571Y-133258571D01*
X149610000Y-133115714D01*
X149538571Y-132401428D02*
X150538571Y-132401428D01*
X149681428Y-132401428D02*
X149610000Y-132330000D01*
X149538571Y-132187142D01*
X149538571Y-131972857D01*
X149610000Y-131830000D01*
X149752857Y-131758571D01*
X150538571Y-131758571D01*
X150538571Y-130401428D02*
X149038571Y-130401428D01*
X150467142Y-130401428D02*
X150538571Y-130544285D01*
X150538571Y-130830000D01*
X150467142Y-130972857D01*
X150395714Y-131044285D01*
X150252857Y-131115714D01*
X149824285Y-131115714D01*
X149681428Y-131044285D01*
X149610000Y-130972857D01*
X149538571Y-130830000D01*
X149538571Y-130544285D01*
X149610000Y-130401428D01*
X145458571Y-123396285D02*
X144458571Y-123396285D01*
X144744285Y-123396285D02*
X144601428Y-123324857D01*
X144530000Y-123253428D01*
X144458571Y-123110571D01*
X144458571Y-122967714D01*
X145458571Y-122610571D02*
X144458571Y-121824857D01*
X144458571Y-122610571D02*
X145458571Y-121824857D01*
X146998571Y-123574857D02*
X146998571Y-123003428D01*
X146498571Y-123360571D02*
X147784285Y-123360571D01*
X147927142Y-123289142D01*
X147998571Y-123146285D01*
X147998571Y-123003428D01*
X147998571Y-122646285D02*
X146998571Y-121860571D01*
X146998571Y-122646285D02*
X147998571Y-121860571D01*
X145906666Y-92644761D02*
X146287619Y-92644761D01*
X146478095Y-92740000D01*
X146668571Y-92930476D01*
X146763809Y-93311428D01*
X146763809Y-93978095D01*
X146668571Y-94359047D01*
X146478095Y-94549523D01*
X146287619Y-94644761D01*
X145906666Y-94644761D01*
X145716190Y-94549523D01*
X145525714Y-94359047D01*
X145430476Y-93978095D01*
X145430476Y-93311428D01*
X145525714Y-92930476D01*
X145716190Y-92740000D01*
X145906666Y-92644761D01*
X148478095Y-94644761D02*
X148478095Y-92644761D01*
X148478095Y-94549523D02*
X148287619Y-94644761D01*
X147906666Y-94644761D01*
X147716190Y-94549523D01*
X147620952Y-94454285D01*
X147525714Y-94263809D01*
X147525714Y-93692380D01*
X147620952Y-93501904D01*
X147716190Y-93406666D01*
X147906666Y-93311428D01*
X148287619Y-93311428D01*
X148478095Y-93406666D01*
X149430476Y-94644761D02*
X149430476Y-93311428D01*
X149430476Y-92644761D02*
X149335238Y-92740000D01*
X149430476Y-92835238D01*
X149525714Y-92740000D01*
X149430476Y-92644761D01*
X149430476Y-92835238D01*
X151144761Y-94549523D02*
X150954285Y-94644761D01*
X150573333Y-94644761D01*
X150382857Y-94549523D01*
X150287619Y-94359047D01*
X150287619Y-93597142D01*
X150382857Y-93406666D01*
X150573333Y-93311428D01*
X150954285Y-93311428D01*
X151144761Y-93406666D01*
X151240000Y-93597142D01*
X151240000Y-93787619D01*
X150287619Y-93978095D01*
X153430476Y-93311428D02*
X153906666Y-94644761D01*
X154382857Y-93311428D01*
X156192380Y-94644761D02*
X155049523Y-94644761D01*
X155620952Y-94644761D02*
X155620952Y-92644761D01*
X155430476Y-92930476D01*
X155240000Y-93120952D01*
X155049523Y-93216190D01*
X157049523Y-94454285D02*
X157144761Y-94549523D01*
X157049523Y-94644761D01*
X156954285Y-94549523D01*
X157049523Y-94454285D01*
X157049523Y-94644761D01*
X158382857Y-92644761D02*
X158573333Y-92644761D01*
X158763809Y-92740000D01*
X158859047Y-92835238D01*
X158954285Y-93025714D01*
X159049523Y-93406666D01*
X159049523Y-93882857D01*
X158954285Y-94263809D01*
X158859047Y-94454285D01*
X158763809Y-94549523D01*
X158573333Y-94644761D01*
X158382857Y-94644761D01*
X158192380Y-94549523D01*
X158097142Y-94454285D01*
X158001904Y-94263809D01*
X157906666Y-93882857D01*
X157906666Y-93406666D01*
X158001904Y-93025714D01*
X158097142Y-92835238D01*
X158192380Y-92740000D01*
X158382857Y-92644761D01*
X143573333Y-96611428D02*
X143954285Y-97944761D01*
X144335238Y-96992380D01*
X144716190Y-97944761D01*
X145097142Y-96611428D01*
X145668571Y-96611428D02*
X146049523Y-97944761D01*
X146430476Y-96992380D01*
X146811428Y-97944761D01*
X147192380Y-96611428D01*
X147763809Y-96611428D02*
X148144761Y-97944761D01*
X148525714Y-96992380D01*
X148906666Y-97944761D01*
X149287619Y-96611428D01*
X150049523Y-97754285D02*
X150144761Y-97849523D01*
X150049523Y-97944761D01*
X149954285Y-97849523D01*
X150049523Y-97754285D01*
X150049523Y-97944761D01*
X150906666Y-96135238D02*
X151001904Y-96040000D01*
X151192380Y-95944761D01*
X151668571Y-95944761D01*
X151859047Y-96040000D01*
X151954285Y-96135238D01*
X152049523Y-96325714D01*
X152049523Y-96516190D01*
X151954285Y-96801904D01*
X150811428Y-97944761D01*
X152049523Y-97944761D01*
X152906666Y-97182857D02*
X154430476Y-97182857D01*
X155763809Y-95944761D02*
X155954285Y-95944761D01*
X156144761Y-96040000D01*
X156240000Y-96135238D01*
X156335238Y-96325714D01*
X156430476Y-96706666D01*
X156430476Y-97182857D01*
X156335238Y-97563809D01*
X156240000Y-97754285D01*
X156144761Y-97849523D01*
X155954285Y-97944761D01*
X155763809Y-97944761D01*
X155573333Y-97849523D01*
X155478095Y-97754285D01*
X155382857Y-97563809D01*
X155287619Y-97182857D01*
X155287619Y-96706666D01*
X155382857Y-96325714D01*
X155478095Y-96135238D01*
X155573333Y-96040000D01*
X155763809Y-95944761D01*
X157287619Y-97754285D02*
X157382857Y-97849523D01*
X157287619Y-97944761D01*
X157192380Y-97849523D01*
X157287619Y-97754285D01*
X157287619Y-97944761D01*
X159097142Y-97944761D02*
X159097142Y-95944761D01*
X159097142Y-97849523D02*
X158906666Y-97944761D01*
X158525714Y-97944761D01*
X158335238Y-97849523D01*
X158240000Y-97754285D01*
X158144761Y-97563809D01*
X158144761Y-96992380D01*
X158240000Y-96801904D01*
X158335238Y-96706666D01*
X158525714Y-96611428D01*
X158906666Y-96611428D01*
X159097142Y-96706666D01*
X160049523Y-97944761D02*
X160049523Y-95944761D01*
X160240000Y-97182857D02*
X160811428Y-97944761D01*
X160811428Y-96611428D02*
X160049523Y-97373333D01*
D11*
X144560000Y-109940000D02*
X144140000Y-109940000D01*
X144560000Y-117060000D02*
X144560000Y-116640000D01*
X144560000Y-116640000D02*
X145940000Y-116640000D01*
X137440000Y-117060000D02*
X137860000Y-117060000D01*
X137440000Y-109940000D02*
X137860000Y-109940000D01*
X144560000Y-117060000D02*
X144140000Y-117060000D01*
X144560000Y-109940000D02*
X144560000Y-110360000D01*
X137440000Y-109940000D02*
X137440000Y-110360000D01*
X137440000Y-117060000D02*
X137440000Y-116640000D01*
X130212779Y-110390000D02*
X129887221Y-110390000D01*
X130212779Y-111410000D02*
X129887221Y-111410000D01*
X129310000Y-123540000D02*
X129310000Y-119330000D01*
X129310000Y-119330000D02*
X126290000Y-119330000D01*
X126290000Y-119330000D02*
X126290000Y-123540000D01*
X133490000Y-119327500D02*
X133490000Y-123537500D01*
X136510000Y-119327500D02*
X133490000Y-119327500D01*
X136510000Y-123537500D02*
X136510000Y-119327500D01*
X135882779Y-117920000D02*
X135557221Y-117920000D01*
X135882779Y-116900000D02*
X135557221Y-116900000D01*
X144400000Y-118607221D02*
X144400000Y-118932779D01*
X145420000Y-118607221D02*
X145420000Y-118932779D01*
X136570000Y-108382779D02*
X136570000Y-108057221D01*
X137590000Y-108382779D02*
X137590000Y-108057221D01*
X147637221Y-112760000D02*
X147962779Y-112760000D01*
X147637221Y-111740000D02*
X147962779Y-111740000D01*
X147637221Y-114260000D02*
X147962779Y-114260000D01*
X147637221Y-113240000D02*
X147962779Y-113240000D01*
X130212779Y-116610000D02*
X129887221Y-116610000D01*
X130212779Y-115590000D02*
X129887221Y-115590000D01*
X141240000Y-120107221D02*
X141240000Y-120432779D01*
X142260000Y-120107221D02*
X142260000Y-120432779D01*
X122620000Y-103882779D02*
X122620000Y-103557221D01*
X121600000Y-103882779D02*
X121600000Y-103557221D01*
X123100000Y-103882779D02*
X123100000Y-103557221D01*
X124120000Y-103882779D02*
X124120000Y-103557221D01*
X125620000Y-103882779D02*
X125620000Y-103557221D01*
X124600000Y-103882779D02*
X124600000Y-103557221D01*
X125550000Y-123047221D02*
X125550000Y-123372779D01*
X124530000Y-123047221D02*
X124530000Y-123372779D01*
X132300000Y-119590000D02*
X129850000Y-119590000D01*
X130500000Y-122810000D02*
X132300000Y-122810000D01*
X129600000Y-115110000D02*
X132050000Y-115110000D01*
X131400000Y-111890000D02*
X129600000Y-111890000D01*
X128545000Y-96345000D02*
X128080000Y-96345000D01*
X125920000Y-96345000D02*
X125455000Y-96345000D01*
X125919571Y-101159479D02*
G75*
G02*
X125920000Y-96650316I1080429J2254479D01*
G01*
X128080429Y-101159479D02*
G75*
G03*
X128080000Y-96650316I-1080429J2254479D01*
G01*
X125919173Y-101692815D02*
G75*
G02*
X125455170Y-96345000I1080827J2787815D01*
G01*
X128080827Y-101692815D02*
G75*
G03*
X128544830Y-96345000I-1080827J2787815D01*
G01*
X125920000Y-125545000D02*
X125455000Y-125545000D01*
X128545000Y-125545000D02*
X128080000Y-125545000D01*
X128080827Y-130892815D02*
G75*
G03*
X128544830Y-125545000I-1080827J2787815D01*
G01*
X125919173Y-130892815D02*
G75*
G02*
X125455170Y-125545000I1080827J2787815D01*
G01*
X128080429Y-130359479D02*
G75*
G03*
X128080000Y-125850316I-1080429J2254479D01*
G01*
X125919571Y-130359479D02*
G75*
G02*
X125920000Y-125850316I1080429J2254479D01*
G01*
X123020000Y-123047221D02*
X123020000Y-123372779D01*
X124040000Y-123047221D02*
X124040000Y-123372779D01*
X122550000Y-123047221D02*
X122550000Y-123372779D01*
X121530000Y-123047221D02*
X121530000Y-123372779D01*
X172058578Y-109400000D02*
X171541422Y-109400000D01*
X172058578Y-110820000D02*
X171541422Y-110820000D01*
X172048578Y-129320000D02*
X171531422Y-129320000D01*
X172048578Y-127900000D02*
X171531422Y-127900000D01*
X153720000Y-124400000D02*
X153720000Y-125730000D01*
X152390000Y-124400000D02*
X153720000Y-124400000D01*
X153720000Y-127000000D02*
X153720000Y-129600000D01*
X151120000Y-127000000D02*
X153720000Y-127000000D01*
X151120000Y-124400000D02*
X151120000Y-127000000D01*
X153720000Y-129600000D02*
X143440000Y-129600000D01*
X151120000Y-124400000D02*
X143440000Y-124400000D01*
X143440000Y-124400000D02*
X143440000Y-129600000D01*
X197600000Y-93400000D02*
X194400000Y-93400000D01*
X197600000Y-100600000D02*
X194400000Y-100600000D01*
X192800000Y-95700000D02*
X192800000Y-98300000D01*
X199680000Y-95200000D02*
X199680000Y-98800000D01*
X199680000Y-113700000D02*
X199680000Y-117300000D01*
X192800000Y-114200000D02*
X192800000Y-116800000D01*
X197600000Y-119100000D02*
X194400000Y-119100000D01*
X197600000Y-111900000D02*
X194400000Y-111900000D01*
X120800000Y-108800000D02*
X118900000Y-108800000D01*
X124700000Y-108800000D02*
X122700000Y-108800000D01*
X120800000Y-118200000D02*
X118900000Y-118200000D01*
X124700000Y-118200000D02*
X122700000Y-118200000D01*
X118900000Y-108800000D02*
X118900000Y-118200000D01*
D12*
X188600000Y-96390000D02*
X176600000Y-96390000D01*
X188600000Y-100390000D02*
X188600000Y-96390000D01*
X190600000Y-100390000D02*
X188600000Y-100390000D01*
X190600000Y-112390000D02*
X190600000Y-100390000D01*
X176600000Y-112390000D02*
X190600000Y-112390000D01*
X176600000Y-96390000D02*
X176600000Y-112390000D01*
X173950000Y-112890000D02*
X173950000Y-95890000D01*
X191250000Y-112890000D02*
X173950000Y-112890000D01*
X191250000Y-95890000D02*
X191250000Y-112890000D01*
X173950000Y-95890000D02*
X191250000Y-95890000D01*
X173950000Y-114390000D02*
X191250000Y-114390000D01*
X191250000Y-114390000D02*
X191250000Y-131390000D01*
X191250000Y-131390000D02*
X173950000Y-131390000D01*
X173950000Y-131390000D02*
X173950000Y-114390000D01*
X176600000Y-114890000D02*
X176600000Y-130890000D01*
X176600000Y-130890000D02*
X190600000Y-130890000D01*
X190600000Y-130890000D02*
X190600000Y-118890000D01*
X190600000Y-118890000D02*
X188600000Y-118890000D01*
X188600000Y-118890000D02*
X188600000Y-114890000D01*
X188600000Y-114890000D02*
X176600000Y-114890000D01*
X138628095Y-118892380D02*
X138628095Y-119701904D01*
X138675714Y-119797142D01*
X138723333Y-119844761D01*
X138818571Y-119892380D01*
X139009047Y-119892380D01*
X139104285Y-119844761D01*
X139151904Y-119797142D01*
X139199523Y-119701904D01*
X139199523Y-118892380D01*
X139580476Y-118892380D02*
X140199523Y-118892380D01*
X139866190Y-119273333D01*
X140009047Y-119273333D01*
X140104285Y-119320952D01*
X140151904Y-119368571D01*
X140199523Y-119463809D01*
X140199523Y-119701904D01*
X140151904Y-119797142D01*
X140104285Y-119844761D01*
X140009047Y-119892380D01*
X139723333Y-119892380D01*
X139628095Y-119844761D01*
X139580476Y-119797142D01*
X129883333Y-109982380D02*
X129550000Y-109506190D01*
X129311904Y-109982380D02*
X129311904Y-108982380D01*
X129692857Y-108982380D01*
X129788095Y-109030000D01*
X129835714Y-109077619D01*
X129883333Y-109172857D01*
X129883333Y-109315714D01*
X129835714Y-109410952D01*
X129788095Y-109458571D01*
X129692857Y-109506190D01*
X129311904Y-109506190D01*
X130835714Y-109982380D02*
X130264285Y-109982380D01*
X130550000Y-109982380D02*
X130550000Y-108982380D01*
X130454761Y-109125238D01*
X130359523Y-109220476D01*
X130264285Y-109268095D01*
X127643333Y-125277142D02*
X127595714Y-125324761D01*
X127452857Y-125372380D01*
X127357619Y-125372380D01*
X127214761Y-125324761D01*
X127119523Y-125229523D01*
X127071904Y-125134285D01*
X127024285Y-124943809D01*
X127024285Y-124800952D01*
X127071904Y-124610476D01*
X127119523Y-124515238D01*
X127214761Y-124420000D01*
X127357619Y-124372380D01*
X127452857Y-124372380D01*
X127595714Y-124420000D01*
X127643333Y-124467619D01*
X128595714Y-125372380D02*
X128024285Y-125372380D01*
X128310000Y-125372380D02*
X128310000Y-124372380D01*
X128214761Y-124515238D01*
X128119523Y-124610476D01*
X128024285Y-124658095D01*
X134753333Y-125277142D02*
X134705714Y-125324761D01*
X134562857Y-125372380D01*
X134467619Y-125372380D01*
X134324761Y-125324761D01*
X134229523Y-125229523D01*
X134181904Y-125134285D01*
X134134285Y-124943809D01*
X134134285Y-124800952D01*
X134181904Y-124610476D01*
X134229523Y-124515238D01*
X134324761Y-124420000D01*
X134467619Y-124372380D01*
X134562857Y-124372380D01*
X134705714Y-124420000D01*
X134753333Y-124467619D01*
X135134285Y-124467619D02*
X135181904Y-124420000D01*
X135277142Y-124372380D01*
X135515238Y-124372380D01*
X135610476Y-124420000D01*
X135658095Y-124467619D01*
X135705714Y-124562857D01*
X135705714Y-124658095D01*
X135658095Y-124800952D01*
X135086666Y-125372380D01*
X135705714Y-125372380D01*
X133223333Y-117717142D02*
X133175714Y-117764761D01*
X133032857Y-117812380D01*
X132937619Y-117812380D01*
X132794761Y-117764761D01*
X132699523Y-117669523D01*
X132651904Y-117574285D01*
X132604285Y-117383809D01*
X132604285Y-117240952D01*
X132651904Y-117050476D01*
X132699523Y-116955238D01*
X132794761Y-116860000D01*
X132937619Y-116812380D01*
X133032857Y-116812380D01*
X133175714Y-116860000D01*
X133223333Y-116907619D01*
X133556666Y-116812380D02*
X134175714Y-116812380D01*
X133842380Y-117193333D01*
X133985238Y-117193333D01*
X134080476Y-117240952D01*
X134128095Y-117288571D01*
X134175714Y-117383809D01*
X134175714Y-117621904D01*
X134128095Y-117717142D01*
X134080476Y-117764761D01*
X133985238Y-117812380D01*
X133699523Y-117812380D01*
X133604285Y-117764761D01*
X133556666Y-117717142D01*
X146433333Y-119127142D02*
X146385714Y-119174761D01*
X146242857Y-119222380D01*
X146147619Y-119222380D01*
X146004761Y-119174761D01*
X145909523Y-119079523D01*
X145861904Y-118984285D01*
X145814285Y-118793809D01*
X145814285Y-118650952D01*
X145861904Y-118460476D01*
X145909523Y-118365238D01*
X146004761Y-118270000D01*
X146147619Y-118222380D01*
X146242857Y-118222380D01*
X146385714Y-118270000D01*
X146433333Y-118317619D01*
X147290476Y-118555714D02*
X147290476Y-119222380D01*
X147052380Y-118174761D02*
X146814285Y-118889047D01*
X147433333Y-118889047D01*
X135283333Y-108577142D02*
X135235714Y-108624761D01*
X135092857Y-108672380D01*
X134997619Y-108672380D01*
X134854761Y-108624761D01*
X134759523Y-108529523D01*
X134711904Y-108434285D01*
X134664285Y-108243809D01*
X134664285Y-108100952D01*
X134711904Y-107910476D01*
X134759523Y-107815238D01*
X134854761Y-107720000D01*
X134997619Y-107672380D01*
X135092857Y-107672380D01*
X135235714Y-107720000D01*
X135283333Y-107767619D01*
X136188095Y-107672380D02*
X135711904Y-107672380D01*
X135664285Y-108148571D01*
X135711904Y-108100952D01*
X135807142Y-108053333D01*
X136045238Y-108053333D01*
X136140476Y-108100952D01*
X136188095Y-108148571D01*
X136235714Y-108243809D01*
X136235714Y-108481904D01*
X136188095Y-108577142D01*
X136140476Y-108624761D01*
X136045238Y-108672380D01*
X135807142Y-108672380D01*
X135711904Y-108624761D01*
X135664285Y-108577142D01*
X147643333Y-111287142D02*
X147595714Y-111334761D01*
X147452857Y-111382380D01*
X147357619Y-111382380D01*
X147214761Y-111334761D01*
X147119523Y-111239523D01*
X147071904Y-111144285D01*
X147024285Y-110953809D01*
X147024285Y-110810952D01*
X147071904Y-110620476D01*
X147119523Y-110525238D01*
X147214761Y-110430000D01*
X147357619Y-110382380D01*
X147452857Y-110382380D01*
X147595714Y-110430000D01*
X147643333Y-110477619D01*
X148500476Y-110382380D02*
X148310000Y-110382380D01*
X148214761Y-110430000D01*
X148167142Y-110477619D01*
X148071904Y-110620476D01*
X148024285Y-110810952D01*
X148024285Y-111191904D01*
X148071904Y-111287142D01*
X148119523Y-111334761D01*
X148214761Y-111382380D01*
X148405238Y-111382380D01*
X148500476Y-111334761D01*
X148548095Y-111287142D01*
X148595714Y-111191904D01*
X148595714Y-110953809D01*
X148548095Y-110858571D01*
X148500476Y-110810952D01*
X148405238Y-110763333D01*
X148214761Y-110763333D01*
X148119523Y-110810952D01*
X148071904Y-110858571D01*
X148024285Y-110953809D01*
X147643333Y-115567142D02*
X147595714Y-115614761D01*
X147452857Y-115662380D01*
X147357619Y-115662380D01*
X147214761Y-115614761D01*
X147119523Y-115519523D01*
X147071904Y-115424285D01*
X147024285Y-115233809D01*
X147024285Y-115090952D01*
X147071904Y-114900476D01*
X147119523Y-114805238D01*
X147214761Y-114710000D01*
X147357619Y-114662380D01*
X147452857Y-114662380D01*
X147595714Y-114710000D01*
X147643333Y-114757619D01*
X147976666Y-114662380D02*
X148643333Y-114662380D01*
X148214761Y-115662380D01*
X129883333Y-117982380D02*
X129550000Y-117506190D01*
X129311904Y-117982380D02*
X129311904Y-116982380D01*
X129692857Y-116982380D01*
X129788095Y-117030000D01*
X129835714Y-117077619D01*
X129883333Y-117172857D01*
X129883333Y-117315714D01*
X129835714Y-117410952D01*
X129788095Y-117458571D01*
X129692857Y-117506190D01*
X129311904Y-117506190D01*
X130264285Y-117077619D02*
X130311904Y-117030000D01*
X130407142Y-116982380D01*
X130645238Y-116982380D01*
X130740476Y-117030000D01*
X130788095Y-117077619D01*
X130835714Y-117172857D01*
X130835714Y-117268095D01*
X130788095Y-117410952D01*
X130216666Y-117982380D01*
X130835714Y-117982380D01*
X141573333Y-122952380D02*
X141240000Y-122476190D01*
X141001904Y-122952380D02*
X141001904Y-121952380D01*
X141382857Y-121952380D01*
X141478095Y-122000000D01*
X141525714Y-122047619D01*
X141573333Y-122142857D01*
X141573333Y-122285714D01*
X141525714Y-122380952D01*
X141478095Y-122428571D01*
X141382857Y-122476190D01*
X141001904Y-122476190D01*
X141906666Y-121952380D02*
X142525714Y-121952380D01*
X142192380Y-122333333D01*
X142335238Y-122333333D01*
X142430476Y-122380952D01*
X142478095Y-122428571D01*
X142525714Y-122523809D01*
X142525714Y-122761904D01*
X142478095Y-122857142D01*
X142430476Y-122904761D01*
X142335238Y-122952380D01*
X142049523Y-122952380D01*
X141954285Y-122904761D01*
X141906666Y-122857142D01*
X122552380Y-106366666D02*
X122076190Y-106700000D01*
X122552380Y-106938095D02*
X121552380Y-106938095D01*
X121552380Y-106557142D01*
X121600000Y-106461904D01*
X121647619Y-106414285D01*
X121742857Y-106366666D01*
X121885714Y-106366666D01*
X121980952Y-106414285D01*
X122028571Y-106461904D01*
X122076190Y-106557142D01*
X122076190Y-106938095D01*
X121885714Y-105509523D02*
X122552380Y-105509523D01*
X121504761Y-105747619D02*
X122219047Y-105985714D01*
X122219047Y-105366666D01*
X124062380Y-106366666D02*
X123586190Y-106700000D01*
X124062380Y-106938095D02*
X123062380Y-106938095D01*
X123062380Y-106557142D01*
X123110000Y-106461904D01*
X123157619Y-106414285D01*
X123252857Y-106366666D01*
X123395714Y-106366666D01*
X123490952Y-106414285D01*
X123538571Y-106461904D01*
X123586190Y-106557142D01*
X123586190Y-106938095D01*
X123062380Y-105461904D02*
X123062380Y-105938095D01*
X123538571Y-105985714D01*
X123490952Y-105938095D01*
X123443333Y-105842857D01*
X123443333Y-105604761D01*
X123490952Y-105509523D01*
X123538571Y-105461904D01*
X123633809Y-105414285D01*
X123871904Y-105414285D01*
X123967142Y-105461904D01*
X124014761Y-105509523D01*
X124062380Y-105604761D01*
X124062380Y-105842857D01*
X124014761Y-105938095D01*
X123967142Y-105985714D01*
X125552380Y-106366666D02*
X125076190Y-106700000D01*
X125552380Y-106938095D02*
X124552380Y-106938095D01*
X124552380Y-106557142D01*
X124600000Y-106461904D01*
X124647619Y-106414285D01*
X124742857Y-106366666D01*
X124885714Y-106366666D01*
X124980952Y-106414285D01*
X125028571Y-106461904D01*
X125076190Y-106557142D01*
X125076190Y-106938095D01*
X124552380Y-105509523D02*
X124552380Y-105700000D01*
X124600000Y-105795238D01*
X124647619Y-105842857D01*
X124790476Y-105938095D01*
X124980952Y-105985714D01*
X125361904Y-105985714D01*
X125457142Y-105938095D01*
X125504761Y-105890476D01*
X125552380Y-105795238D01*
X125552380Y-105604761D01*
X125504761Y-105509523D01*
X125457142Y-105461904D01*
X125361904Y-105414285D01*
X125123809Y-105414285D01*
X125028571Y-105461904D01*
X124980952Y-105509523D01*
X124933333Y-105604761D01*
X124933333Y-105795238D01*
X124980952Y-105890476D01*
X125028571Y-105938095D01*
X125123809Y-105985714D01*
X125492380Y-120876666D02*
X125016190Y-121210000D01*
X125492380Y-121448095D02*
X124492380Y-121448095D01*
X124492380Y-121067142D01*
X124540000Y-120971904D01*
X124587619Y-120924285D01*
X124682857Y-120876666D01*
X124825714Y-120876666D01*
X124920952Y-120924285D01*
X124968571Y-120971904D01*
X125016190Y-121067142D01*
X125016190Y-121448095D01*
X124492380Y-120543333D02*
X124492380Y-119876666D01*
X125492380Y-120305238D01*
X130638095Y-123212380D02*
X130638095Y-124021904D01*
X130685714Y-124117142D01*
X130733333Y-124164761D01*
X130828571Y-124212380D01*
X131019047Y-124212380D01*
X131114285Y-124164761D01*
X131161904Y-124117142D01*
X131209523Y-124021904D01*
X131209523Y-123212380D01*
X132209523Y-124212380D02*
X131638095Y-124212380D01*
X131923809Y-124212380D02*
X131923809Y-123212380D01*
X131828571Y-123355238D01*
X131733333Y-123450476D01*
X131638095Y-123498095D01*
X132738095Y-112952380D02*
X132738095Y-113761904D01*
X132785714Y-113857142D01*
X132833333Y-113904761D01*
X132928571Y-113952380D01*
X133119047Y-113952380D01*
X133214285Y-113904761D01*
X133261904Y-113857142D01*
X133309523Y-113761904D01*
X133309523Y-112952380D01*
X133738095Y-113047619D02*
X133785714Y-113000000D01*
X133880952Y-112952380D01*
X134119047Y-112952380D01*
X134214285Y-113000000D01*
X134261904Y-113047619D01*
X134309523Y-113142857D01*
X134309523Y-113238095D01*
X134261904Y-113380952D01*
X133690476Y-113952380D01*
X134309523Y-113952380D01*
X126331904Y-95292380D02*
X126331904Y-94292380D01*
X126570000Y-94292380D01*
X126712857Y-94340000D01*
X126808095Y-94435238D01*
X126855714Y-94530476D01*
X126903333Y-94720952D01*
X126903333Y-94863809D01*
X126855714Y-95054285D01*
X126808095Y-95149523D01*
X126712857Y-95244761D01*
X126570000Y-95292380D01*
X126331904Y-95292380D01*
X127855714Y-95292380D02*
X127284285Y-95292380D01*
X127570000Y-95292380D02*
X127570000Y-94292380D01*
X127474761Y-94435238D01*
X127379523Y-94530476D01*
X127284285Y-94578095D01*
X126251904Y-132502380D02*
X126251904Y-131502380D01*
X126490000Y-131502380D01*
X126632857Y-131550000D01*
X126728095Y-131645238D01*
X126775714Y-131740476D01*
X126823333Y-131930952D01*
X126823333Y-132073809D01*
X126775714Y-132264285D01*
X126728095Y-132359523D01*
X126632857Y-132454761D01*
X126490000Y-132502380D01*
X126251904Y-132502380D01*
X127204285Y-131597619D02*
X127251904Y-131550000D01*
X127347142Y-131502380D01*
X127585238Y-131502380D01*
X127680476Y-131550000D01*
X127728095Y-131597619D01*
X127775714Y-131692857D01*
X127775714Y-131788095D01*
X127728095Y-131930952D01*
X127156666Y-132502380D01*
X127775714Y-132502380D01*
X123982380Y-120866666D02*
X123506190Y-121200000D01*
X123982380Y-121438095D02*
X122982380Y-121438095D01*
X122982380Y-121057142D01*
X123030000Y-120961904D01*
X123077619Y-120914285D01*
X123172857Y-120866666D01*
X123315714Y-120866666D01*
X123410952Y-120914285D01*
X123458571Y-120961904D01*
X123506190Y-121057142D01*
X123506190Y-121438095D01*
X123410952Y-120295238D02*
X123363333Y-120390476D01*
X123315714Y-120438095D01*
X123220476Y-120485714D01*
X123172857Y-120485714D01*
X123077619Y-120438095D01*
X123030000Y-120390476D01*
X122982380Y-120295238D01*
X122982380Y-120104761D01*
X123030000Y-120009523D01*
X123077619Y-119961904D01*
X123172857Y-119914285D01*
X123220476Y-119914285D01*
X123315714Y-119961904D01*
X123363333Y-120009523D01*
X123410952Y-120104761D01*
X123410952Y-120295238D01*
X123458571Y-120390476D01*
X123506190Y-120438095D01*
X123601428Y-120485714D01*
X123791904Y-120485714D01*
X123887142Y-120438095D01*
X123934761Y-120390476D01*
X123982380Y-120295238D01*
X123982380Y-120104761D01*
X123934761Y-120009523D01*
X123887142Y-119961904D01*
X123791904Y-119914285D01*
X123601428Y-119914285D01*
X123506190Y-119961904D01*
X123458571Y-120009523D01*
X123410952Y-120104761D01*
X122492380Y-120876666D02*
X122016190Y-121210000D01*
X122492380Y-121448095D02*
X121492380Y-121448095D01*
X121492380Y-121067142D01*
X121540000Y-120971904D01*
X121587619Y-120924285D01*
X121682857Y-120876666D01*
X121825714Y-120876666D01*
X121920952Y-120924285D01*
X121968571Y-120971904D01*
X122016190Y-121067142D01*
X122016190Y-121448095D01*
X122492380Y-120400476D02*
X122492380Y-120210000D01*
X122444761Y-120114761D01*
X122397142Y-120067142D01*
X122254285Y-119971904D01*
X122063809Y-119924285D01*
X121682857Y-119924285D01*
X121587619Y-119971904D01*
X121540000Y-120019523D01*
X121492380Y-120114761D01*
X121492380Y-120305238D01*
X121540000Y-120400476D01*
X121587619Y-120448095D01*
X121682857Y-120495714D01*
X121920952Y-120495714D01*
X122016190Y-120448095D01*
X122063809Y-120400476D01*
X122111428Y-120305238D01*
X122111428Y-120114761D01*
X122063809Y-120019523D01*
X122016190Y-119971904D01*
X121920952Y-119924285D01*
X171633333Y-112117142D02*
X171585714Y-112164761D01*
X171442857Y-112212380D01*
X171347619Y-112212380D01*
X171204761Y-112164761D01*
X171109523Y-112069523D01*
X171061904Y-111974285D01*
X171014285Y-111783809D01*
X171014285Y-111640952D01*
X171061904Y-111450476D01*
X171109523Y-111355238D01*
X171204761Y-111260000D01*
X171347619Y-111212380D01*
X171442857Y-111212380D01*
X171585714Y-111260000D01*
X171633333Y-111307619D01*
X172204761Y-111640952D02*
X172109523Y-111593333D01*
X172061904Y-111545714D01*
X172014285Y-111450476D01*
X172014285Y-111402857D01*
X172061904Y-111307619D01*
X172109523Y-111260000D01*
X172204761Y-111212380D01*
X172395238Y-111212380D01*
X172490476Y-111260000D01*
X172538095Y-111307619D01*
X172585714Y-111402857D01*
X172585714Y-111450476D01*
X172538095Y-111545714D01*
X172490476Y-111593333D01*
X172395238Y-111640952D01*
X172204761Y-111640952D01*
X172109523Y-111688571D01*
X172061904Y-111736190D01*
X172014285Y-111831428D01*
X172014285Y-112021904D01*
X172061904Y-112117142D01*
X172109523Y-112164761D01*
X172204761Y-112212380D01*
X172395238Y-112212380D01*
X172490476Y-112164761D01*
X172538095Y-112117142D01*
X172585714Y-112021904D01*
X172585714Y-111831428D01*
X172538095Y-111736190D01*
X172490476Y-111688571D01*
X172395238Y-111640952D01*
X171623333Y-130617142D02*
X171575714Y-130664761D01*
X171432857Y-130712380D01*
X171337619Y-130712380D01*
X171194761Y-130664761D01*
X171099523Y-130569523D01*
X171051904Y-130474285D01*
X171004285Y-130283809D01*
X171004285Y-130140952D01*
X171051904Y-129950476D01*
X171099523Y-129855238D01*
X171194761Y-129760000D01*
X171337619Y-129712380D01*
X171432857Y-129712380D01*
X171575714Y-129760000D01*
X171623333Y-129807619D01*
X172099523Y-130712380D02*
X172290000Y-130712380D01*
X172385238Y-130664761D01*
X172432857Y-130617142D01*
X172528095Y-130474285D01*
X172575714Y-130283809D01*
X172575714Y-129902857D01*
X172528095Y-129807619D01*
X172480476Y-129760000D01*
X172385238Y-129712380D01*
X172194761Y-129712380D01*
X172099523Y-129760000D01*
X172051904Y-129807619D01*
X172004285Y-129902857D01*
X172004285Y-130140952D01*
X172051904Y-130236190D01*
X172099523Y-130283809D01*
X172194761Y-130331428D01*
X172385238Y-130331428D01*
X172480476Y-130283809D01*
X172528095Y-130236190D01*
X172575714Y-130140952D01*
X154172380Y-127333333D02*
X154886666Y-127333333D01*
X155029523Y-127380952D01*
X155124761Y-127476190D01*
X155172380Y-127619047D01*
X155172380Y-127714285D01*
X154267619Y-126904761D02*
X154220000Y-126857142D01*
X154172380Y-126761904D01*
X154172380Y-126523809D01*
X154220000Y-126428571D01*
X154267619Y-126380952D01*
X154362857Y-126333333D01*
X154458095Y-126333333D01*
X154600952Y-126380952D01*
X155172380Y-126952380D01*
X155172380Y-126333333D01*
X194380952Y-92266666D02*
X194857142Y-92266666D01*
X194285714Y-92552380D02*
X194619047Y-91552380D01*
X194952380Y-92552380D01*
X195285714Y-92552380D02*
X195285714Y-91552380D01*
X195857142Y-92552380D01*
X195857142Y-91552380D01*
X196190476Y-91552380D02*
X196761904Y-91552380D01*
X196476190Y-92552380D02*
X196476190Y-91552380D01*
X197619047Y-92552380D02*
X197047619Y-92552380D01*
X197333333Y-92552380D02*
X197333333Y-91552380D01*
X197238095Y-91695238D01*
X197142857Y-91790476D01*
X197047619Y-91838095D01*
X194380952Y-110766666D02*
X194857142Y-110766666D01*
X194285714Y-111052380D02*
X194619047Y-110052380D01*
X194952380Y-111052380D01*
X195285714Y-111052380D02*
X195285714Y-110052380D01*
X195857142Y-111052380D01*
X195857142Y-110052380D01*
X196190476Y-110052380D02*
X196761904Y-110052380D01*
X196476190Y-111052380D02*
X196476190Y-110052380D01*
X197047619Y-110147619D02*
X197095238Y-110100000D01*
X197190476Y-110052380D01*
X197428571Y-110052380D01*
X197523809Y-110100000D01*
X197571428Y-110147619D01*
X197619047Y-110242857D01*
X197619047Y-110338095D01*
X197571428Y-110480952D01*
X197000000Y-111052380D01*
X197619047Y-111052380D01*
X127897380Y-113833333D02*
X128611666Y-113833333D01*
X128754523Y-113880952D01*
X128849761Y-113976190D01*
X128897380Y-114119047D01*
X128897380Y-114214285D01*
X128897380Y-112833333D02*
X128897380Y-113404761D01*
X128897380Y-113119047D02*
X127897380Y-113119047D01*
X128040238Y-113214285D01*
X128135476Y-113309523D01*
X128183095Y-113404761D01*
X191538095Y-103852380D02*
X191538095Y-104661904D01*
X191585714Y-104757142D01*
X191633333Y-104804761D01*
X191728571Y-104852380D01*
X191919047Y-104852380D01*
X192014285Y-104804761D01*
X192061904Y-104757142D01*
X192109523Y-104661904D01*
X192109523Y-103852380D01*
X193014285Y-104185714D02*
X193014285Y-104852380D01*
X192776190Y-103804761D02*
X192538095Y-104519047D01*
X193157142Y-104519047D01*
X191538095Y-122352380D02*
X191538095Y-123161904D01*
X191585714Y-123257142D01*
X191633333Y-123304761D01*
X191728571Y-123352380D01*
X191919047Y-123352380D01*
X192014285Y-123304761D01*
X192061904Y-123257142D01*
X192109523Y-123161904D01*
X192109523Y-122352380D01*
X193061904Y-122352380D02*
X192585714Y-122352380D01*
X192538095Y-122828571D01*
X192585714Y-122780952D01*
X192680952Y-122733333D01*
X192919047Y-122733333D01*
X193014285Y-122780952D01*
X193061904Y-122828571D01*
X193109523Y-122923809D01*
X193109523Y-123161904D01*
X193061904Y-123257142D01*
X193014285Y-123304761D01*
X192919047Y-123352380D01*
X192680952Y-123352380D01*
X192585714Y-123304761D01*
X192538095Y-123257142D01*
M02*
