G04 #@! TF.GenerationSoftware,KiCad,Pcbnew,5.1.8-db9833491~87~ubuntu20.04.1*
G04 #@! TF.CreationDate,2020-11-19T11:04:08+01:00*
G04 #@! TF.ProjectId,odie,6f646965-2e6b-4696-9361-645f70636258,v1.0*
G04 #@! TF.SameCoordinates,Original*
G04 #@! TF.FileFunction,Copper,L1,Top*
G04 #@! TF.FilePolarity,Positive*
%FSLAX46Y46*%
G04 Gerber Fmt 4.6, Leading zero omitted, Abs format (unit mm)*
G04 Created by KiCad (PCBNEW 5.1.8-db9833491~87~ubuntu20.04.1) date 2020-11-19 11:04:08*
%MOMM*%
%LPD*%
G01*
G04 APERTURE LIST*
G04 #@! TA.AperFunction,SMDPad,CuDef*
%ADD10R,1.300000X0.250000*%
G04 #@! TD*
G04 #@! TA.AperFunction,SMDPad,CuDef*
%ADD11R,0.250000X1.300000*%
G04 #@! TD*
G04 #@! TA.AperFunction,SMDPad,CuDef*
%ADD12R,1.060000X0.650000*%
G04 #@! TD*
G04 #@! TA.AperFunction,ComponentPad*
%ADD13O,1.800000X1.070000*%
G04 #@! TD*
G04 #@! TA.AperFunction,ComponentPad*
%ADD14R,1.800000X1.070000*%
G04 #@! TD*
G04 #@! TA.AperFunction,ComponentPad*
%ADD15R,1.700000X1.700000*%
G04 #@! TD*
G04 #@! TA.AperFunction,ComponentPad*
%ADD16O,1.700000X1.700000*%
G04 #@! TD*
G04 #@! TA.AperFunction,ComponentPad*
%ADD17C,2.250000*%
G04 #@! TD*
G04 #@! TA.AperFunction,SMDPad,CuDef*
%ADD18R,1.450000X0.600000*%
G04 #@! TD*
G04 #@! TA.AperFunction,SMDPad,CuDef*
%ADD19R,1.450000X0.300000*%
G04 #@! TD*
G04 #@! TA.AperFunction,ComponentPad*
%ADD20O,2.100000X1.000000*%
G04 #@! TD*
G04 #@! TA.AperFunction,ComponentPad*
%ADD21O,1.600000X1.000000*%
G04 #@! TD*
G04 #@! TA.AperFunction,SMDPad,CuDef*
%ADD22O,1.800000X0.800000*%
G04 #@! TD*
G04 #@! TA.AperFunction,ViaPad*
%ADD23C,0.600000*%
G04 #@! TD*
G04 #@! TA.AperFunction,ViaPad*
%ADD24C,0.800000*%
G04 #@! TD*
G04 #@! TA.AperFunction,Conductor*
%ADD25C,0.500000*%
G04 #@! TD*
G04 #@! TA.AperFunction,Conductor*
%ADD26C,0.250000*%
G04 #@! TD*
G04 #@! TA.AperFunction,Conductor*
%ADD27C,1.000000*%
G04 #@! TD*
G04 APERTURE END LIST*
D10*
X145350000Y-116250000D03*
X145350000Y-115750000D03*
X145350000Y-115250000D03*
X145350000Y-114750000D03*
X145350000Y-114250000D03*
X145350000Y-113750000D03*
X145350000Y-113250000D03*
X145350000Y-112750000D03*
X145350000Y-112250000D03*
X145350000Y-111750000D03*
X145350000Y-111250000D03*
X145350000Y-110750000D03*
D11*
X143750000Y-109150000D03*
X143250000Y-109150000D03*
X142750000Y-109150000D03*
X142250000Y-109150000D03*
X141750000Y-109150000D03*
X141250000Y-109150000D03*
X140750000Y-109150000D03*
X140250000Y-109150000D03*
X139750000Y-109150000D03*
X139250000Y-109150000D03*
X138750000Y-109150000D03*
X138250000Y-109150000D03*
D10*
X136650000Y-110750000D03*
X136650000Y-111250000D03*
X136650000Y-111750000D03*
X136650000Y-112250000D03*
X136650000Y-112750000D03*
X136650000Y-113250000D03*
X136650000Y-113750000D03*
X136650000Y-114250000D03*
X136650000Y-114750000D03*
X136650000Y-115250000D03*
X136650000Y-115750000D03*
X136650000Y-116250000D03*
D11*
X138250000Y-117850000D03*
X138750000Y-117850000D03*
X139250000Y-117850000D03*
X139750000Y-117850000D03*
X140250000Y-117850000D03*
X140750000Y-117850000D03*
X141250000Y-117850000D03*
X141750000Y-117850000D03*
X142250000Y-117850000D03*
X142750000Y-117850000D03*
X143250000Y-117850000D03*
X143750000Y-117850000D03*
G04 #@! TA.AperFunction,SMDPad,CuDef*
G36*
G01*
X131275000Y-110643750D02*
X131275000Y-111156250D01*
G75*
G02*
X131056250Y-111375000I-218750J0D01*
G01*
X130618750Y-111375000D01*
G75*
G02*
X130400000Y-111156250I0J218750D01*
G01*
X130400000Y-110643750D01*
G75*
G02*
X130618750Y-110425000I218750J0D01*
G01*
X131056250Y-110425000D01*
G75*
G02*
X131275000Y-110643750I0J-218750D01*
G01*
G37*
G04 #@! TD.AperFunction*
G04 #@! TA.AperFunction,SMDPad,CuDef*
G36*
G01*
X129700000Y-110643750D02*
X129700000Y-111156250D01*
G75*
G02*
X129481250Y-111375000I-218750J0D01*
G01*
X129043750Y-111375000D01*
G75*
G02*
X128825000Y-111156250I0J218750D01*
G01*
X128825000Y-110643750D01*
G75*
G02*
X129043750Y-110425000I218750J0D01*
G01*
X129481250Y-110425000D01*
G75*
G02*
X129700000Y-110643750I0J-218750D01*
G01*
G37*
G04 #@! TD.AperFunction*
G04 #@! TA.AperFunction,SMDPad,CuDef*
G36*
G01*
X126874999Y-122665000D02*
X128725001Y-122665000D01*
G75*
G02*
X128975000Y-122914999I0J-249999D01*
G01*
X128975000Y-123740001D01*
G75*
G02*
X128725001Y-123990000I-249999J0D01*
G01*
X126874999Y-123990000D01*
G75*
G02*
X126625000Y-123740001I0J249999D01*
G01*
X126625000Y-122914999D01*
G75*
G02*
X126874999Y-122665000I249999J0D01*
G01*
G37*
G04 #@! TD.AperFunction*
G04 #@! TA.AperFunction,SMDPad,CuDef*
G36*
G01*
X126874999Y-119590000D02*
X128725001Y-119590000D01*
G75*
G02*
X128975000Y-119839999I0J-249999D01*
G01*
X128975000Y-120665001D01*
G75*
G02*
X128725001Y-120915000I-249999J0D01*
G01*
X126874999Y-120915000D01*
G75*
G02*
X126625000Y-120665001I0J249999D01*
G01*
X126625000Y-119839999D01*
G75*
G02*
X126874999Y-119590000I249999J0D01*
G01*
G37*
G04 #@! TD.AperFunction*
G04 #@! TA.AperFunction,SMDPad,CuDef*
G36*
G01*
X134074999Y-119587500D02*
X135925001Y-119587500D01*
G75*
G02*
X136175000Y-119837499I0J-249999D01*
G01*
X136175000Y-120662501D01*
G75*
G02*
X135925001Y-120912500I-249999J0D01*
G01*
X134074999Y-120912500D01*
G75*
G02*
X133825000Y-120662501I0J249999D01*
G01*
X133825000Y-119837499D01*
G75*
G02*
X134074999Y-119587500I249999J0D01*
G01*
G37*
G04 #@! TD.AperFunction*
G04 #@! TA.AperFunction,SMDPad,CuDef*
G36*
G01*
X134074999Y-122662500D02*
X135925001Y-122662500D01*
G75*
G02*
X136175000Y-122912499I0J-249999D01*
G01*
X136175000Y-123737501D01*
G75*
G02*
X135925001Y-123987500I-249999J0D01*
G01*
X134074999Y-123987500D01*
G75*
G02*
X133825000Y-123737501I0J249999D01*
G01*
X133825000Y-122912499D01*
G75*
G02*
X134074999Y-122662500I249999J0D01*
G01*
G37*
G04 #@! TD.AperFunction*
G04 #@! TA.AperFunction,SMDPad,CuDef*
G36*
G01*
X135370000Y-117153750D02*
X135370000Y-117666250D01*
G75*
G02*
X135151250Y-117885000I-218750J0D01*
G01*
X134713750Y-117885000D01*
G75*
G02*
X134495000Y-117666250I0J218750D01*
G01*
X134495000Y-117153750D01*
G75*
G02*
X134713750Y-116935000I218750J0D01*
G01*
X135151250Y-116935000D01*
G75*
G02*
X135370000Y-117153750I0J-218750D01*
G01*
G37*
G04 #@! TD.AperFunction*
G04 #@! TA.AperFunction,SMDPad,CuDef*
G36*
G01*
X136945000Y-117153750D02*
X136945000Y-117666250D01*
G75*
G02*
X136726250Y-117885000I-218750J0D01*
G01*
X136288750Y-117885000D01*
G75*
G02*
X136070000Y-117666250I0J218750D01*
G01*
X136070000Y-117153750D01*
G75*
G02*
X136288750Y-116935000I218750J0D01*
G01*
X136726250Y-116935000D01*
G75*
G02*
X136945000Y-117153750I0J-218750D01*
G01*
G37*
G04 #@! TD.AperFunction*
G04 #@! TA.AperFunction,SMDPad,CuDef*
G36*
G01*
X144653750Y-117545000D02*
X145166250Y-117545000D01*
G75*
G02*
X145385000Y-117763750I0J-218750D01*
G01*
X145385000Y-118201250D01*
G75*
G02*
X145166250Y-118420000I-218750J0D01*
G01*
X144653750Y-118420000D01*
G75*
G02*
X144435000Y-118201250I0J218750D01*
G01*
X144435000Y-117763750D01*
G75*
G02*
X144653750Y-117545000I218750J0D01*
G01*
G37*
G04 #@! TD.AperFunction*
G04 #@! TA.AperFunction,SMDPad,CuDef*
G36*
G01*
X144653750Y-119120000D02*
X145166250Y-119120000D01*
G75*
G02*
X145385000Y-119338750I0J-218750D01*
G01*
X145385000Y-119776250D01*
G75*
G02*
X145166250Y-119995000I-218750J0D01*
G01*
X144653750Y-119995000D01*
G75*
G02*
X144435000Y-119776250I0J218750D01*
G01*
X144435000Y-119338750D01*
G75*
G02*
X144653750Y-119120000I218750J0D01*
G01*
G37*
G04 #@! TD.AperFunction*
G04 #@! TA.AperFunction,SMDPad,CuDef*
G36*
G01*
X137336250Y-107870000D02*
X136823750Y-107870000D01*
G75*
G02*
X136605000Y-107651250I0J218750D01*
G01*
X136605000Y-107213750D01*
G75*
G02*
X136823750Y-106995000I218750J0D01*
G01*
X137336250Y-106995000D01*
G75*
G02*
X137555000Y-107213750I0J-218750D01*
G01*
X137555000Y-107651250D01*
G75*
G02*
X137336250Y-107870000I-218750J0D01*
G01*
G37*
G04 #@! TD.AperFunction*
G04 #@! TA.AperFunction,SMDPad,CuDef*
G36*
G01*
X137336250Y-109445000D02*
X136823750Y-109445000D01*
G75*
G02*
X136605000Y-109226250I0J218750D01*
G01*
X136605000Y-108788750D01*
G75*
G02*
X136823750Y-108570000I218750J0D01*
G01*
X137336250Y-108570000D01*
G75*
G02*
X137555000Y-108788750I0J-218750D01*
G01*
X137555000Y-109226250D01*
G75*
G02*
X137336250Y-109445000I-218750J0D01*
G01*
G37*
G04 #@! TD.AperFunction*
G04 #@! TA.AperFunction,SMDPad,CuDef*
G36*
G01*
X146575000Y-112506250D02*
X146575000Y-111993750D01*
G75*
G02*
X146793750Y-111775000I218750J0D01*
G01*
X147231250Y-111775000D01*
G75*
G02*
X147450000Y-111993750I0J-218750D01*
G01*
X147450000Y-112506250D01*
G75*
G02*
X147231250Y-112725000I-218750J0D01*
G01*
X146793750Y-112725000D01*
G75*
G02*
X146575000Y-112506250I0J218750D01*
G01*
G37*
G04 #@! TD.AperFunction*
G04 #@! TA.AperFunction,SMDPad,CuDef*
G36*
G01*
X148150000Y-112506250D02*
X148150000Y-111993750D01*
G75*
G02*
X148368750Y-111775000I218750J0D01*
G01*
X148806250Y-111775000D01*
G75*
G02*
X149025000Y-111993750I0J-218750D01*
G01*
X149025000Y-112506250D01*
G75*
G02*
X148806250Y-112725000I-218750J0D01*
G01*
X148368750Y-112725000D01*
G75*
G02*
X148150000Y-112506250I0J218750D01*
G01*
G37*
G04 #@! TD.AperFunction*
G04 #@! TA.AperFunction,SMDPad,CuDef*
G36*
G01*
X146575000Y-114006250D02*
X146575000Y-113493750D01*
G75*
G02*
X146793750Y-113275000I218750J0D01*
G01*
X147231250Y-113275000D01*
G75*
G02*
X147450000Y-113493750I0J-218750D01*
G01*
X147450000Y-114006250D01*
G75*
G02*
X147231250Y-114225000I-218750J0D01*
G01*
X146793750Y-114225000D01*
G75*
G02*
X146575000Y-114006250I0J218750D01*
G01*
G37*
G04 #@! TD.AperFunction*
G04 #@! TA.AperFunction,SMDPad,CuDef*
G36*
G01*
X148150000Y-114006250D02*
X148150000Y-113493750D01*
G75*
G02*
X148368750Y-113275000I218750J0D01*
G01*
X148806250Y-113275000D01*
G75*
G02*
X149025000Y-113493750I0J-218750D01*
G01*
X149025000Y-114006250D01*
G75*
G02*
X148806250Y-114225000I-218750J0D01*
G01*
X148368750Y-114225000D01*
G75*
G02*
X148150000Y-114006250I0J218750D01*
G01*
G37*
G04 #@! TD.AperFunction*
G04 #@! TA.AperFunction,SMDPad,CuDef*
G36*
G01*
X129700000Y-115843750D02*
X129700000Y-116356250D01*
G75*
G02*
X129481250Y-116575000I-218750J0D01*
G01*
X129043750Y-116575000D01*
G75*
G02*
X128825000Y-116356250I0J218750D01*
G01*
X128825000Y-115843750D01*
G75*
G02*
X129043750Y-115625000I218750J0D01*
G01*
X129481250Y-115625000D01*
G75*
G02*
X129700000Y-115843750I0J-218750D01*
G01*
G37*
G04 #@! TD.AperFunction*
G04 #@! TA.AperFunction,SMDPad,CuDef*
G36*
G01*
X131275000Y-115843750D02*
X131275000Y-116356250D01*
G75*
G02*
X131056250Y-116575000I-218750J0D01*
G01*
X130618750Y-116575000D01*
G75*
G02*
X130400000Y-116356250I0J218750D01*
G01*
X130400000Y-115843750D01*
G75*
G02*
X130618750Y-115625000I218750J0D01*
G01*
X131056250Y-115625000D01*
G75*
G02*
X131275000Y-115843750I0J-218750D01*
G01*
G37*
G04 #@! TD.AperFunction*
G04 #@! TA.AperFunction,SMDPad,CuDef*
G36*
G01*
X141493750Y-119045000D02*
X142006250Y-119045000D01*
G75*
G02*
X142225000Y-119263750I0J-218750D01*
G01*
X142225000Y-119701250D01*
G75*
G02*
X142006250Y-119920000I-218750J0D01*
G01*
X141493750Y-119920000D01*
G75*
G02*
X141275000Y-119701250I0J218750D01*
G01*
X141275000Y-119263750D01*
G75*
G02*
X141493750Y-119045000I218750J0D01*
G01*
G37*
G04 #@! TD.AperFunction*
G04 #@! TA.AperFunction,SMDPad,CuDef*
G36*
G01*
X141493750Y-120620000D02*
X142006250Y-120620000D01*
G75*
G02*
X142225000Y-120838750I0J-218750D01*
G01*
X142225000Y-121276250D01*
G75*
G02*
X142006250Y-121495000I-218750J0D01*
G01*
X141493750Y-121495000D01*
G75*
G02*
X141275000Y-121276250I0J218750D01*
G01*
X141275000Y-120838750D01*
G75*
G02*
X141493750Y-120620000I218750J0D01*
G01*
G37*
G04 #@! TD.AperFunction*
G04 #@! TA.AperFunction,SMDPad,CuDef*
G36*
G01*
X122366250Y-104945000D02*
X121853750Y-104945000D01*
G75*
G02*
X121635000Y-104726250I0J218750D01*
G01*
X121635000Y-104288750D01*
G75*
G02*
X121853750Y-104070000I218750J0D01*
G01*
X122366250Y-104070000D01*
G75*
G02*
X122585000Y-104288750I0J-218750D01*
G01*
X122585000Y-104726250D01*
G75*
G02*
X122366250Y-104945000I-218750J0D01*
G01*
G37*
G04 #@! TD.AperFunction*
G04 #@! TA.AperFunction,SMDPad,CuDef*
G36*
G01*
X122366250Y-103370000D02*
X121853750Y-103370000D01*
G75*
G02*
X121635000Y-103151250I0J218750D01*
G01*
X121635000Y-102713750D01*
G75*
G02*
X121853750Y-102495000I218750J0D01*
G01*
X122366250Y-102495000D01*
G75*
G02*
X122585000Y-102713750I0J-218750D01*
G01*
X122585000Y-103151250D01*
G75*
G02*
X122366250Y-103370000I-218750J0D01*
G01*
G37*
G04 #@! TD.AperFunction*
G04 #@! TA.AperFunction,SMDPad,CuDef*
G36*
G01*
X123866250Y-103370000D02*
X123353750Y-103370000D01*
G75*
G02*
X123135000Y-103151250I0J218750D01*
G01*
X123135000Y-102713750D01*
G75*
G02*
X123353750Y-102495000I218750J0D01*
G01*
X123866250Y-102495000D01*
G75*
G02*
X124085000Y-102713750I0J-218750D01*
G01*
X124085000Y-103151250D01*
G75*
G02*
X123866250Y-103370000I-218750J0D01*
G01*
G37*
G04 #@! TD.AperFunction*
G04 #@! TA.AperFunction,SMDPad,CuDef*
G36*
G01*
X123866250Y-104945000D02*
X123353750Y-104945000D01*
G75*
G02*
X123135000Y-104726250I0J218750D01*
G01*
X123135000Y-104288750D01*
G75*
G02*
X123353750Y-104070000I218750J0D01*
G01*
X123866250Y-104070000D01*
G75*
G02*
X124085000Y-104288750I0J-218750D01*
G01*
X124085000Y-104726250D01*
G75*
G02*
X123866250Y-104945000I-218750J0D01*
G01*
G37*
G04 #@! TD.AperFunction*
G04 #@! TA.AperFunction,SMDPad,CuDef*
G36*
G01*
X125366250Y-104945000D02*
X124853750Y-104945000D01*
G75*
G02*
X124635000Y-104726250I0J218750D01*
G01*
X124635000Y-104288750D01*
G75*
G02*
X124853750Y-104070000I218750J0D01*
G01*
X125366250Y-104070000D01*
G75*
G02*
X125585000Y-104288750I0J-218750D01*
G01*
X125585000Y-104726250D01*
G75*
G02*
X125366250Y-104945000I-218750J0D01*
G01*
G37*
G04 #@! TD.AperFunction*
G04 #@! TA.AperFunction,SMDPad,CuDef*
G36*
G01*
X125366250Y-103370000D02*
X124853750Y-103370000D01*
G75*
G02*
X124635000Y-103151250I0J218750D01*
G01*
X124635000Y-102713750D01*
G75*
G02*
X124853750Y-102495000I218750J0D01*
G01*
X125366250Y-102495000D01*
G75*
G02*
X125585000Y-102713750I0J-218750D01*
G01*
X125585000Y-103151250D01*
G75*
G02*
X125366250Y-103370000I-218750J0D01*
G01*
G37*
G04 #@! TD.AperFunction*
G04 #@! TA.AperFunction,SMDPad,CuDef*
G36*
G01*
X124783750Y-123560000D02*
X125296250Y-123560000D01*
G75*
G02*
X125515000Y-123778750I0J-218750D01*
G01*
X125515000Y-124216250D01*
G75*
G02*
X125296250Y-124435000I-218750J0D01*
G01*
X124783750Y-124435000D01*
G75*
G02*
X124565000Y-124216250I0J218750D01*
G01*
X124565000Y-123778750D01*
G75*
G02*
X124783750Y-123560000I218750J0D01*
G01*
G37*
G04 #@! TD.AperFunction*
G04 #@! TA.AperFunction,SMDPad,CuDef*
G36*
G01*
X124783750Y-121985000D02*
X125296250Y-121985000D01*
G75*
G02*
X125515000Y-122203750I0J-218750D01*
G01*
X125515000Y-122641250D01*
G75*
G02*
X125296250Y-122860000I-218750J0D01*
G01*
X124783750Y-122860000D01*
G75*
G02*
X124565000Y-122641250I0J218750D01*
G01*
X124565000Y-122203750D01*
G75*
G02*
X124783750Y-121985000I218750J0D01*
G01*
G37*
G04 #@! TD.AperFunction*
D12*
X130300000Y-120250000D03*
X130300000Y-121200000D03*
X130300000Y-122150000D03*
X132500000Y-122150000D03*
X132500000Y-120250000D03*
X131600000Y-114450000D03*
X131600000Y-113500000D03*
X131600000Y-112550000D03*
X129400000Y-112550000D03*
X129400000Y-114450000D03*
X129400000Y-113500000D03*
D13*
X127000000Y-100810000D03*
X127000000Y-99540000D03*
X127000000Y-98270000D03*
D14*
X127000000Y-97000000D03*
X127000000Y-126200000D03*
D13*
X127000000Y-127470000D03*
X127000000Y-128740000D03*
X127000000Y-130010000D03*
G04 #@! TA.AperFunction,SMDPad,CuDef*
G36*
G01*
X123273750Y-121985000D02*
X123786250Y-121985000D01*
G75*
G02*
X124005000Y-122203750I0J-218750D01*
G01*
X124005000Y-122641250D01*
G75*
G02*
X123786250Y-122860000I-218750J0D01*
G01*
X123273750Y-122860000D01*
G75*
G02*
X123055000Y-122641250I0J218750D01*
G01*
X123055000Y-122203750D01*
G75*
G02*
X123273750Y-121985000I218750J0D01*
G01*
G37*
G04 #@! TD.AperFunction*
G04 #@! TA.AperFunction,SMDPad,CuDef*
G36*
G01*
X123273750Y-123560000D02*
X123786250Y-123560000D01*
G75*
G02*
X124005000Y-123778750I0J-218750D01*
G01*
X124005000Y-124216250D01*
G75*
G02*
X123786250Y-124435000I-218750J0D01*
G01*
X123273750Y-124435000D01*
G75*
G02*
X123055000Y-124216250I0J218750D01*
G01*
X123055000Y-123778750D01*
G75*
G02*
X123273750Y-123560000I218750J0D01*
G01*
G37*
G04 #@! TD.AperFunction*
G04 #@! TA.AperFunction,SMDPad,CuDef*
G36*
G01*
X121783750Y-123560000D02*
X122296250Y-123560000D01*
G75*
G02*
X122515000Y-123778750I0J-218750D01*
G01*
X122515000Y-124216250D01*
G75*
G02*
X122296250Y-124435000I-218750J0D01*
G01*
X121783750Y-124435000D01*
G75*
G02*
X121565000Y-124216250I0J218750D01*
G01*
X121565000Y-123778750D01*
G75*
G02*
X121783750Y-123560000I218750J0D01*
G01*
G37*
G04 #@! TD.AperFunction*
G04 #@! TA.AperFunction,SMDPad,CuDef*
G36*
G01*
X121783750Y-121985000D02*
X122296250Y-121985000D01*
G75*
G02*
X122515000Y-122203750I0J-218750D01*
G01*
X122515000Y-122641250D01*
G75*
G02*
X122296250Y-122860000I-218750J0D01*
G01*
X121783750Y-122860000D01*
G75*
G02*
X121565000Y-122641250I0J218750D01*
G01*
X121565000Y-122203750D01*
G75*
G02*
X121783750Y-121985000I218750J0D01*
G01*
G37*
G04 #@! TD.AperFunction*
G04 #@! TA.AperFunction,SMDPad,CuDef*
G36*
G01*
X173225000Y-109653750D02*
X173225000Y-110566250D01*
G75*
G02*
X172981250Y-110810000I-243750J0D01*
G01*
X172493750Y-110810000D01*
G75*
G02*
X172250000Y-110566250I0J243750D01*
G01*
X172250000Y-109653750D01*
G75*
G02*
X172493750Y-109410000I243750J0D01*
G01*
X172981250Y-109410000D01*
G75*
G02*
X173225000Y-109653750I0J-243750D01*
G01*
G37*
G04 #@! TD.AperFunction*
G04 #@! TA.AperFunction,SMDPad,CuDef*
G36*
G01*
X171350000Y-109653750D02*
X171350000Y-110566250D01*
G75*
G02*
X171106250Y-110810000I-243750J0D01*
G01*
X170618750Y-110810000D01*
G75*
G02*
X170375000Y-110566250I0J243750D01*
G01*
X170375000Y-109653750D01*
G75*
G02*
X170618750Y-109410000I243750J0D01*
G01*
X171106250Y-109410000D01*
G75*
G02*
X171350000Y-109653750I0J-243750D01*
G01*
G37*
G04 #@! TD.AperFunction*
G04 #@! TA.AperFunction,SMDPad,CuDef*
G36*
G01*
X171340000Y-128153750D02*
X171340000Y-129066250D01*
G75*
G02*
X171096250Y-129310000I-243750J0D01*
G01*
X170608750Y-129310000D01*
G75*
G02*
X170365000Y-129066250I0J243750D01*
G01*
X170365000Y-128153750D01*
G75*
G02*
X170608750Y-127910000I243750J0D01*
G01*
X171096250Y-127910000D01*
G75*
G02*
X171340000Y-128153750I0J-243750D01*
G01*
G37*
G04 #@! TD.AperFunction*
G04 #@! TA.AperFunction,SMDPad,CuDef*
G36*
G01*
X173215000Y-128153750D02*
X173215000Y-129066250D01*
G75*
G02*
X172971250Y-129310000I-243750J0D01*
G01*
X172483750Y-129310000D01*
G75*
G02*
X172240000Y-129066250I0J243750D01*
G01*
X172240000Y-128153750D01*
G75*
G02*
X172483750Y-127910000I243750J0D01*
G01*
X172971250Y-127910000D01*
G75*
G02*
X173215000Y-128153750I0J-243750D01*
G01*
G37*
G04 #@! TD.AperFunction*
D15*
X152390000Y-125730000D03*
D16*
X152390000Y-128270000D03*
X149850000Y-125730000D03*
X149850000Y-128270000D03*
X147310000Y-125730000D03*
X147310000Y-128270000D03*
X144770000Y-125730000D03*
X144770000Y-128270000D03*
D17*
X196000000Y-97000000D03*
X193460000Y-99540000D03*
X198540000Y-99540000D03*
X198540000Y-94460000D03*
X193460000Y-94460000D03*
X193460000Y-112960000D03*
X198540000Y-112960000D03*
X198540000Y-118040000D03*
X193460000Y-118040000D03*
X196000000Y-115500000D03*
D18*
X126845000Y-116750000D03*
X126845000Y-115950000D03*
X126845000Y-111050000D03*
X126845000Y-110250000D03*
X126845000Y-110250000D03*
X126845000Y-111050000D03*
X126845000Y-115950000D03*
X126845000Y-116750000D03*
D19*
X126845000Y-111750000D03*
X126845000Y-112250000D03*
X126845000Y-112750000D03*
X126845000Y-113750000D03*
X126845000Y-114250000D03*
X126845000Y-114750000D03*
X126845000Y-115250000D03*
X126845000Y-113250000D03*
D20*
X125930000Y-117820000D03*
X125930000Y-109180000D03*
D21*
X121750000Y-109180000D03*
X121750000Y-117820000D03*
D22*
X190650000Y-98500000D03*
X190650000Y-97000000D03*
X174550000Y-111375000D03*
X174550000Y-110105000D03*
X174550000Y-108835000D03*
X174550000Y-107565000D03*
X174550000Y-106295000D03*
X174550000Y-105025000D03*
X174550000Y-103755000D03*
X174550000Y-102485000D03*
X174550000Y-101215000D03*
X174550000Y-99945000D03*
X174550000Y-98675000D03*
X174550000Y-97405000D03*
X174550000Y-115905000D03*
X174550000Y-117175000D03*
X174550000Y-118445000D03*
X174550000Y-119715000D03*
X174550000Y-120985000D03*
X174550000Y-122255000D03*
X174550000Y-123525000D03*
X174550000Y-124795000D03*
X174550000Y-126065000D03*
X174550000Y-127335000D03*
X174550000Y-128605000D03*
X174550000Y-129875000D03*
X190650000Y-115500000D03*
X190650000Y-117000000D03*
D23*
X130530002Y-113500000D03*
D24*
X127800000Y-122050000D03*
X135000000Y-122050000D03*
X138160000Y-107439998D03*
X143830000Y-119560000D03*
X134930000Y-116330000D03*
X149600000Y-112250000D03*
X149600000Y-113750000D03*
D23*
X144200000Y-112750000D03*
D24*
X173050000Y-115905000D03*
X173040000Y-97405000D03*
X131430000Y-121190000D03*
X131880000Y-116099998D03*
X131880000Y-110890000D03*
X169770001Y-128610000D03*
X169772641Y-110107357D03*
X142840000Y-121050000D03*
D23*
X127800000Y-111100000D03*
X127800000Y-115900000D03*
X128520011Y-113577490D03*
D24*
X137510000Y-118740000D03*
X135470000Y-118770000D03*
D23*
X140124990Y-106295000D03*
D24*
X144469996Y-106300000D03*
D23*
X139624990Y-107565000D03*
D24*
X143980000Y-107559998D03*
D25*
X131600000Y-113500000D02*
X130530002Y-113500000D01*
X127800000Y-123325000D02*
X127800000Y-122050000D01*
X135000000Y-123327500D02*
X135000000Y-122050000D01*
X138152502Y-107432500D02*
X138160000Y-107439998D01*
X137080000Y-107432500D02*
X138152502Y-107432500D01*
D26*
X138750000Y-108029998D02*
X138160000Y-107439998D01*
X138750000Y-109150000D02*
X138750000Y-108029998D01*
X143832500Y-119557500D02*
X143830000Y-119560000D01*
D25*
X144910000Y-119557500D02*
X143832500Y-119557500D01*
D26*
X143250000Y-118980000D02*
X143830000Y-119560000D01*
X143250000Y-117850000D02*
X143250000Y-118980000D01*
X134930000Y-117407500D02*
X134932500Y-117410000D01*
D25*
X134930000Y-116330000D02*
X134930000Y-117407500D01*
D26*
X135510000Y-115750000D02*
X134930000Y-116330000D01*
X136650000Y-115750000D02*
X135510000Y-115750000D01*
X148587500Y-113750000D02*
X149600000Y-113750000D01*
D25*
X148587500Y-112250000D02*
X149600000Y-112250000D01*
D26*
X145350000Y-112750000D02*
X144200000Y-112750000D01*
D27*
X192420000Y-117000000D02*
X193460000Y-118040000D01*
X190650000Y-117000000D02*
X192420000Y-117000000D01*
X192420000Y-98500000D02*
X193460000Y-99540000D01*
X190650000Y-98500000D02*
X192420000Y-98500000D01*
D25*
X174550000Y-97405000D02*
X173040000Y-97405000D01*
X174550000Y-115905000D02*
X173050000Y-115905000D01*
D26*
X131420000Y-121200000D02*
X131430000Y-121190000D01*
D25*
X130300000Y-121200000D02*
X131420000Y-121200000D01*
D26*
X131879998Y-116100000D02*
X131880000Y-116099998D01*
X130837500Y-116100000D02*
X131879998Y-116100000D01*
X131870000Y-110900000D02*
X131880000Y-110890000D01*
X130837500Y-110900000D02*
X131870000Y-110900000D01*
D25*
X170852500Y-128610000D02*
X169770001Y-128610000D01*
X170862500Y-110110000D02*
X169775284Y-110110000D01*
X169775284Y-110110000D02*
X169772641Y-110107357D01*
X126590000Y-109880000D02*
X125890000Y-109180000D01*
X126590000Y-110300000D02*
X126590000Y-109880000D01*
X126590000Y-117120000D02*
X125890000Y-117820000D01*
X126590000Y-116700000D02*
X126590000Y-117120000D01*
D26*
X142832500Y-121057500D02*
X142840000Y-121050000D01*
X141750000Y-121057500D02*
X142832500Y-121057500D01*
X130297500Y-120252500D02*
X130300000Y-120250000D01*
D25*
X127800000Y-120252500D02*
X130297500Y-120252500D01*
D26*
X129520000Y-120250000D02*
X130300000Y-120250000D01*
X129240000Y-120530000D02*
X129520000Y-120250000D01*
X130300000Y-122150000D02*
X129520000Y-122150000D01*
X129240000Y-121870000D02*
X129240000Y-120530000D01*
X129520000Y-122150000D02*
X129240000Y-121870000D01*
D25*
X126590000Y-111100000D02*
X127800000Y-111100000D01*
X126590000Y-115900000D02*
X127800000Y-115900000D01*
X129400000Y-113500000D02*
X128597501Y-113500000D01*
X128597501Y-113500000D02*
X128520011Y-113577490D01*
X128099999Y-116199999D02*
X128099999Y-119952501D01*
X128099999Y-119952501D02*
X127800000Y-120252500D01*
X127800000Y-115900000D02*
X128099999Y-116199999D01*
D26*
X145350000Y-116250000D02*
X145350000Y-117537500D01*
X144687500Y-117850000D02*
X144862500Y-118025000D01*
X143750000Y-117850000D02*
X144687500Y-117850000D01*
X145350000Y-117537500D02*
X144862500Y-118025000D01*
X136650000Y-117267500D02*
X136507500Y-117410000D01*
X136650000Y-116250000D02*
X136650000Y-117267500D01*
D25*
X138750000Y-115750000D02*
X143250000Y-115750000D01*
X138750000Y-111250000D02*
X138750000Y-115750000D01*
D26*
X143300000Y-115750000D02*
X143250000Y-115750000D01*
D25*
X144910000Y-117982500D02*
X144910000Y-117360000D01*
X144910000Y-117360000D02*
X143300000Y-115750000D01*
D26*
X138700000Y-115750000D02*
X138750000Y-115750000D01*
D25*
X136507500Y-117410000D02*
X137040000Y-117410000D01*
X137040000Y-117410000D02*
X138700000Y-115750000D01*
X136507500Y-117410000D02*
X136507500Y-119152500D01*
X135410000Y-120250000D02*
X136507500Y-119152500D01*
X135000000Y-120250000D02*
X135410000Y-120250000D01*
X133280000Y-120250000D02*
X135000000Y-120250000D01*
X132500000Y-120250000D02*
X133280000Y-120250000D01*
D26*
X137222500Y-109150000D02*
X137080000Y-109007500D01*
X138250000Y-109150000D02*
X137222500Y-109150000D01*
X138750000Y-111215000D02*
X138750000Y-111250000D01*
D25*
X137080000Y-109545000D02*
X138750000Y-111215000D01*
X137080000Y-109007500D02*
X137080000Y-109545000D01*
D26*
X145350000Y-112250000D02*
X147012500Y-112250000D01*
X144595004Y-112250000D02*
X145350000Y-112250000D01*
X143560004Y-111215000D02*
X144595004Y-112250000D01*
X172732500Y-128605000D02*
X172727500Y-128610000D01*
D25*
X174550000Y-128605000D02*
X172732500Y-128605000D01*
X161470000Y-129800000D02*
X171537500Y-129800000D01*
X144910000Y-117982500D02*
X149652500Y-117982500D01*
X171537500Y-129800000D02*
X172727500Y-128610000D01*
X149652500Y-117982500D02*
X161470000Y-129800000D01*
D26*
X172742500Y-110105000D02*
X172737500Y-110110000D01*
D25*
X174550000Y-110105000D02*
X172742500Y-110105000D01*
X172181263Y-110666237D02*
X172737500Y-110110000D01*
X143275000Y-111215000D02*
X144370000Y-110120000D01*
X138750000Y-111215000D02*
X143275000Y-111215000D01*
X171537500Y-111310000D02*
X172181263Y-110666237D01*
X144370000Y-110120000D02*
X168583188Y-110120000D01*
X168583188Y-110120000D02*
X169773188Y-111310000D01*
X169773188Y-111310000D02*
X171537500Y-111310000D01*
X152390000Y-126830000D02*
X152390000Y-128270000D01*
X152390000Y-125730000D02*
X152390000Y-126830000D01*
D26*
X135000000Y-120250000D02*
X135530000Y-120250000D01*
D25*
X136850000Y-127410000D02*
X139920000Y-130480000D01*
X136850000Y-121640000D02*
X136850000Y-127410000D01*
X135530000Y-120250000D02*
X135530000Y-120320000D01*
X150180000Y-130480000D02*
X152390000Y-128270000D01*
X139920000Y-130480000D02*
X150180000Y-130480000D01*
X135530000Y-120320000D02*
X136850000Y-121640000D01*
D26*
X122110000Y-102395000D02*
X122110000Y-102932500D01*
X122110000Y-100740000D02*
X122110000Y-102395000D01*
X125850000Y-97000000D02*
X122110000Y-100740000D01*
X127000000Y-97000000D02*
X125850000Y-97000000D01*
X125040000Y-124535000D02*
X125040000Y-123997500D01*
X125040000Y-125390000D02*
X125040000Y-124535000D01*
X125850000Y-126200000D02*
X125040000Y-125390000D01*
X127000000Y-126200000D02*
X125850000Y-126200000D01*
X128412500Y-115250000D02*
X129262500Y-116100000D01*
X126590000Y-115250000D02*
X128412500Y-115250000D01*
X131600000Y-114450000D02*
X129400000Y-114450000D01*
X133030000Y-113760000D02*
X133520000Y-113760000D01*
X134510000Y-114750000D02*
X136650000Y-114750000D01*
X133520000Y-113760000D02*
X134510000Y-114750000D01*
X131600000Y-114450000D02*
X132340000Y-114450000D01*
X132340000Y-114450000D02*
X133030000Y-113760000D01*
X128520000Y-114450000D02*
X129400000Y-114450000D01*
X127830001Y-113274999D02*
X127895001Y-113339999D01*
X127515000Y-114250000D02*
X128320000Y-114250000D01*
X127830001Y-114225001D02*
X127539999Y-114225001D01*
X128320000Y-114250000D02*
X128520000Y-114450000D01*
X127539999Y-113274999D02*
X127830001Y-113274999D01*
X127895001Y-114160001D02*
X127830001Y-114225001D01*
X126590000Y-113250000D02*
X127515000Y-113250000D01*
X127515000Y-113250000D02*
X127539999Y-113274999D01*
X127539999Y-114225001D02*
X127515000Y-114250000D01*
X127895001Y-113339999D02*
X127895001Y-114160001D01*
X129400000Y-112550000D02*
X131600000Y-112550000D01*
X133070000Y-113250000D02*
X132370000Y-112550000D01*
X133670000Y-113250000D02*
X133070000Y-113250000D01*
X136650000Y-114250000D02*
X134670000Y-114250000D01*
X132370000Y-112550000D02*
X131600000Y-112550000D01*
X134670000Y-114250000D02*
X133670000Y-113250000D01*
X126590000Y-112750000D02*
X128350000Y-112750000D01*
X128550000Y-112550000D02*
X129400000Y-112550000D01*
X128350000Y-112750000D02*
X128550000Y-112550000D01*
X125665000Y-113750000D02*
X126590000Y-113750000D01*
X125480000Y-113565000D02*
X125665000Y-113750000D01*
X125480000Y-112935000D02*
X125480000Y-113565000D01*
X126590000Y-112750000D02*
X125665000Y-112750000D01*
X125665000Y-112750000D02*
X125480000Y-112935000D01*
X127912500Y-112250000D02*
X129262500Y-110900000D01*
X126590000Y-112250000D02*
X127912500Y-112250000D01*
X133979989Y-108876398D02*
X131903560Y-106799969D01*
X133979989Y-111010759D02*
X133979989Y-108876398D01*
X136650000Y-112250000D02*
X135219230Y-112250000D01*
X122140000Y-104537500D02*
X122110000Y-104507500D01*
X122140000Y-105170000D02*
X122140000Y-104537500D01*
X131903560Y-106799969D02*
X123769969Y-106799969D01*
X123769969Y-106799969D02*
X122140000Y-105170000D01*
X135219230Y-112250000D02*
X133979989Y-111010759D01*
X123610000Y-105160000D02*
X123610000Y-104969112D01*
X136650000Y-111750000D02*
X135360000Y-111750000D01*
X134430000Y-110820000D02*
X134430000Y-108689998D01*
X135360000Y-111750000D02*
X134430000Y-110820000D01*
X134430000Y-108689998D02*
X132089957Y-106349959D01*
X124799959Y-106349959D02*
X123610000Y-105160000D01*
X123610000Y-104969112D02*
X123610000Y-104507500D01*
X132089957Y-106349959D02*
X124799959Y-106349959D01*
X125040000Y-121640000D02*
X125040000Y-122422500D01*
X132629956Y-111569956D02*
X132629956Y-109489956D01*
X136650000Y-113750000D02*
X134810000Y-113750000D01*
X124680000Y-108150000D02*
X124160000Y-108670000D01*
X124160000Y-108670000D02*
X124160000Y-120760000D01*
X132629956Y-109489956D02*
X131290000Y-108150000D01*
X124160000Y-120760000D02*
X125040000Y-121640000D01*
X131290000Y-108150000D02*
X124680000Y-108150000D01*
X134810000Y-113750000D02*
X132629956Y-111569956D01*
X123709989Y-121530011D02*
X123530000Y-121710000D01*
X134946410Y-113250000D02*
X133079967Y-111383557D01*
X123709989Y-108483600D02*
X123709989Y-121530011D01*
X123530000Y-121885000D02*
X123530000Y-122422500D01*
X133079967Y-109303556D02*
X131476400Y-107699989D01*
X136650000Y-113250000D02*
X134946410Y-113250000D01*
X123530000Y-121710000D02*
X123530000Y-121885000D01*
X133079967Y-111383557D02*
X133079967Y-109303556D01*
X131476400Y-107699989D02*
X124493600Y-107699989D01*
X124493600Y-107699989D02*
X123709989Y-108483600D01*
X125110000Y-102395000D02*
X125110000Y-102932500D01*
X125110000Y-102240000D02*
X125110000Y-102395000D01*
X127000000Y-100810000D02*
X126540000Y-100810000D01*
X126540000Y-100810000D02*
X125110000Y-102240000D01*
X123610000Y-102395000D02*
X123610000Y-102932500D01*
X123610000Y-101780000D02*
X123610000Y-102395000D01*
X125850000Y-99540000D02*
X123610000Y-101780000D01*
X127000000Y-99540000D02*
X125850000Y-99540000D01*
X123530000Y-124535000D02*
X123530000Y-123997500D01*
X123530000Y-126420000D02*
X123530000Y-124535000D01*
X125850000Y-128740000D02*
X123530000Y-126420000D01*
X127000000Y-128740000D02*
X125850000Y-128740000D01*
X122040000Y-124535000D02*
X122040000Y-123997500D01*
X122040000Y-126200000D02*
X122040000Y-124535000D01*
X125850000Y-130010000D02*
X122040000Y-126200000D01*
X127000000Y-130010000D02*
X125850000Y-130010000D01*
X125110000Y-105240000D02*
X125110000Y-104507500D01*
X134880011Y-108503599D02*
X132266412Y-105890000D01*
X132266412Y-105890000D02*
X125760000Y-105890000D01*
X125760000Y-105890000D02*
X125110000Y-105240000D01*
X134880011Y-110380011D02*
X134880011Y-108503599D01*
X135750000Y-111250000D02*
X134880011Y-110380011D01*
X136650000Y-111250000D02*
X135750000Y-111250000D01*
X136650000Y-112750000D02*
X135082820Y-112750000D01*
X122501612Y-121960888D02*
X122040000Y-122422500D01*
X133529978Y-111197158D02*
X133529978Y-109117156D01*
X133529978Y-109117156D02*
X131662800Y-107249978D01*
X123259978Y-108297200D02*
X123259978Y-121202522D01*
X131662800Y-107249978D02*
X124307200Y-107249978D01*
X124307200Y-107249978D02*
X123259978Y-108297200D01*
X123259978Y-121202522D02*
X122501612Y-121960888D01*
X135082820Y-112750000D02*
X133529978Y-111197158D01*
X141750000Y-117850000D02*
X141750000Y-119482500D01*
X146512500Y-113250000D02*
X147012500Y-113750000D01*
X145350000Y-113250000D02*
X146512500Y-113250000D01*
D27*
X190650000Y-97000000D02*
X196000000Y-97000000D01*
X190650000Y-115500000D02*
X196000000Y-115500000D01*
D26*
X140750000Y-117850000D02*
X140750000Y-118593590D01*
X146460001Y-126579999D02*
X147310000Y-125730000D01*
X146050000Y-126990000D02*
X146460001Y-126579999D01*
X142503589Y-126990000D02*
X146050000Y-126990000D01*
X140380000Y-124866411D02*
X142503589Y-126990000D01*
X140380000Y-118963589D02*
X140380000Y-124866411D01*
X140750000Y-118593590D02*
X140380000Y-118963589D01*
X134360000Y-118770000D02*
X135470000Y-118770000D01*
X133820000Y-118230000D02*
X134360000Y-118770000D01*
X133820000Y-116340000D02*
X133820000Y-118230000D01*
X136650000Y-115250000D02*
X134910000Y-115250000D01*
X134910000Y-115250000D02*
X133820000Y-116340000D01*
X146460001Y-129119999D02*
X147310000Y-128270000D01*
X145880000Y-129700000D02*
X146460001Y-129119999D01*
X140470000Y-129700000D02*
X145880000Y-129700000D01*
X137510000Y-118740000D02*
X137510000Y-126740000D01*
X137510000Y-126740000D02*
X140470000Y-129700000D01*
X141880000Y-125730000D02*
X144770000Y-125730000D01*
X140830011Y-124680011D02*
X141880000Y-125730000D01*
X141250000Y-118730000D02*
X140830011Y-119149989D01*
X141250000Y-117850000D02*
X141250000Y-118730000D01*
X140830011Y-119149989D02*
X140830011Y-124680011D01*
X140380000Y-128270000D02*
X144770000Y-128270000D01*
X138250000Y-117850000D02*
X138250000Y-126140000D01*
X138250000Y-126140000D02*
X140380000Y-128270000D01*
X150240000Y-111250000D02*
X145350000Y-111250000D01*
X174550000Y-123525000D02*
X162515000Y-123525000D01*
X162515000Y-123525000D02*
X150240000Y-111250000D01*
X143250000Y-106436996D02*
X143250000Y-108250000D01*
X174550000Y-105025000D02*
X144661996Y-105025000D01*
X143250000Y-108250000D02*
X143250000Y-109150000D01*
X144661996Y-105025000D02*
X143250000Y-106436996D01*
X142750000Y-110050000D02*
X142750000Y-109150000D01*
X142750000Y-110146413D02*
X142750000Y-110050000D01*
X142266413Y-110630000D02*
X142750000Y-110146413D01*
X141233587Y-110630000D02*
X142266413Y-110630000D01*
X140750000Y-109150000D02*
X140750000Y-110146413D01*
X140750000Y-110146413D02*
X141233587Y-110630000D01*
X173365000Y-119715000D02*
X174550000Y-119715000D01*
X172310022Y-118660022D02*
X173365000Y-119715000D01*
X177650000Y-112370000D02*
X175930000Y-114090000D01*
X175930000Y-114090000D02*
X173732820Y-114090000D01*
X174550000Y-101215000D02*
X175735000Y-101215000D01*
X175735000Y-101215000D02*
X177650000Y-103130000D01*
X177650000Y-103130000D02*
X177650000Y-112370000D01*
X173732820Y-114090000D02*
X172310022Y-115512798D01*
X172310022Y-115512798D02*
X172310022Y-118660022D01*
X140750000Y-108316411D02*
X140750000Y-109150000D01*
X140750000Y-106032820D02*
X140750000Y-108316411D01*
X145567820Y-101215000D02*
X140750000Y-106032820D01*
X174550000Y-101215000D02*
X145567820Y-101215000D01*
X142250000Y-110010002D02*
X142250000Y-109150000D01*
X142080002Y-110180000D02*
X142250000Y-110010002D01*
X141419998Y-110180000D02*
X142080002Y-110180000D01*
X141250000Y-109150000D02*
X141250000Y-110010002D01*
X141250000Y-110010002D02*
X141419998Y-110180000D01*
X174550000Y-120985000D02*
X173400000Y-120985000D01*
X171860011Y-115326398D02*
X173546420Y-113639989D01*
X171860011Y-119445011D02*
X171860011Y-115326398D01*
X177199989Y-103984989D02*
X175700000Y-102485000D01*
X177199989Y-112183601D02*
X177199989Y-103984989D01*
X175700000Y-102485000D02*
X174550000Y-102485000D01*
X173400000Y-120985000D02*
X171860011Y-119445011D01*
X175743601Y-113639989D02*
X177199989Y-112183601D01*
X173546420Y-113639989D02*
X175743601Y-113639989D01*
X174550000Y-102485000D02*
X144988589Y-102485000D01*
X141250000Y-108452822D02*
X141250000Y-109150000D01*
X141250000Y-106223589D02*
X141250000Y-108452822D01*
X144988589Y-102485000D02*
X141250000Y-106223589D01*
X173400000Y-122255000D02*
X174550000Y-122255000D01*
X171410000Y-120265000D02*
X173400000Y-122255000D01*
X174550000Y-103755000D02*
X175805000Y-103755000D01*
X171410000Y-115139998D02*
X171410000Y-120265000D01*
X175805000Y-103755000D02*
X176749978Y-104699978D01*
X176749978Y-104699978D02*
X176749978Y-111920022D01*
X173360020Y-113189978D02*
X171410000Y-115139998D01*
X176749978Y-111920022D02*
X175480022Y-113189978D01*
X175480022Y-113189978D02*
X173360020Y-113189978D01*
X141750022Y-109149978D02*
X141750000Y-109150000D01*
X144355000Y-103755000D02*
X141750022Y-106359978D01*
X174550000Y-103755000D02*
X144355000Y-103755000D01*
X141750022Y-106359978D02*
X141750022Y-109149978D01*
X159818188Y-127335000D02*
X148233188Y-115750000D01*
X174550000Y-127335000D02*
X159818188Y-127335000D01*
X146250000Y-115750000D02*
X145350000Y-115750000D01*
X148233188Y-115750000D02*
X146250000Y-115750000D01*
X145350000Y-115250000D02*
X148369598Y-115250000D01*
X173400000Y-126065000D02*
X174550000Y-126065000D01*
X159184598Y-126065000D02*
X173400000Y-126065000D01*
X148369598Y-115250000D02*
X159184598Y-126065000D01*
X146250000Y-114750000D02*
X145350000Y-114750000D01*
X158551008Y-124795000D02*
X148506008Y-114750000D01*
X174550000Y-124795000D02*
X158551008Y-124795000D01*
X148506008Y-114750000D02*
X146250000Y-114750000D01*
X146250000Y-110750000D02*
X145350000Y-110750000D01*
X168400000Y-110750000D02*
X146250000Y-110750000D01*
X169540000Y-111890000D02*
X168400000Y-110750000D01*
X171830000Y-111890000D02*
X169540000Y-111890000D01*
X174550000Y-111375000D02*
X172345000Y-111375000D01*
X172345000Y-111375000D02*
X171830000Y-111890000D01*
X144190000Y-109150000D02*
X143750000Y-109150000D01*
X174550000Y-108835000D02*
X144505000Y-108835000D01*
X144505000Y-108835000D02*
X144190000Y-109150000D01*
X174550000Y-106295000D02*
X175050000Y-106295000D01*
X140229990Y-106400000D02*
X140124990Y-106295000D01*
X140230000Y-106400000D02*
X140229990Y-106400000D01*
X140250000Y-109150000D02*
X140250000Y-106420000D01*
X140250000Y-106420000D02*
X140230000Y-106400000D01*
X144474996Y-106295000D02*
X144469996Y-106300000D01*
X174550000Y-106295000D02*
X144474996Y-106295000D01*
X139750000Y-109150000D02*
X139750000Y-107690010D01*
X139750000Y-107690010D02*
X139624990Y-107565000D01*
X143985002Y-107565000D02*
X143980000Y-107559998D01*
X174550000Y-107565000D02*
X143985002Y-107565000D01*
X142750000Y-119530000D02*
X142750000Y-117850000D01*
X172415000Y-129875000D02*
X171910000Y-130380000D01*
X174550000Y-129875000D02*
X172415000Y-129875000D01*
X151180000Y-120430000D02*
X143650000Y-120430000D01*
X171910000Y-130380000D02*
X161130000Y-130380000D01*
X161130000Y-130380000D02*
X151180000Y-120430000D01*
X143650000Y-120430000D02*
X142750000Y-119530000D01*
M02*
