G04 #@! TF.GenerationSoftware,KiCad,Pcbnew,5.1.8-db9833491~87~ubuntu20.04.1*
G04 #@! TF.CreationDate,2020-11-19T11:04:08+01:00*
G04 #@! TF.ProjectId,odie,6f646965-2e6b-4696-9361-645f70636258,v1.0*
G04 #@! TF.SameCoordinates,Original*
G04 #@! TF.FileFunction,Soldermask,Top*
G04 #@! TF.FilePolarity,Negative*
%FSLAX46Y46*%
G04 Gerber Fmt 4.6, Leading zero omitted, Abs format (unit mm)*
G04 Created by KiCad (PCBNEW 5.1.8-db9833491~87~ubuntu20.04.1) date 2020-11-19 11:04:08*
%MOMM*%
%LPD*%
G01*
G04 APERTURE LIST*
%ADD10R,1.300000X0.250000*%
%ADD11R,0.250000X1.300000*%
%ADD12R,1.060000X0.650000*%
%ADD13O,1.800000X1.070000*%
%ADD14R,1.800000X1.070000*%
%ADD15R,1.700000X1.700000*%
%ADD16O,1.700000X1.700000*%
%ADD17C,2.250000*%
%ADD18R,1.450000X0.600000*%
%ADD19R,1.450000X0.300000*%
%ADD20O,2.100000X1.000000*%
%ADD21C,0.650000*%
%ADD22O,1.600000X1.000000*%
%ADD23O,1.800000X0.800000*%
G04 APERTURE END LIST*
D10*
X145350000Y-116250000D03*
X145350000Y-115750000D03*
X145350000Y-115250000D03*
X145350000Y-114750000D03*
X145350000Y-114250000D03*
X145350000Y-113750000D03*
X145350000Y-113250000D03*
X145350000Y-112750000D03*
X145350000Y-112250000D03*
X145350000Y-111750000D03*
X145350000Y-111250000D03*
X145350000Y-110750000D03*
D11*
X143750000Y-109150000D03*
X143250000Y-109150000D03*
X142750000Y-109150000D03*
X142250000Y-109150000D03*
X141750000Y-109150000D03*
X141250000Y-109150000D03*
X140750000Y-109150000D03*
X140250000Y-109150000D03*
X139750000Y-109150000D03*
X139250000Y-109150000D03*
X138750000Y-109150000D03*
X138250000Y-109150000D03*
D10*
X136650000Y-110750000D03*
X136650000Y-111250000D03*
X136650000Y-111750000D03*
X136650000Y-112250000D03*
X136650000Y-112750000D03*
X136650000Y-113250000D03*
X136650000Y-113750000D03*
X136650000Y-114250000D03*
X136650000Y-114750000D03*
X136650000Y-115250000D03*
X136650000Y-115750000D03*
X136650000Y-116250000D03*
D11*
X138250000Y-117850000D03*
X138750000Y-117850000D03*
X139250000Y-117850000D03*
X139750000Y-117850000D03*
X140250000Y-117850000D03*
X140750000Y-117850000D03*
X141250000Y-117850000D03*
X141750000Y-117850000D03*
X142250000Y-117850000D03*
X142750000Y-117850000D03*
X143250000Y-117850000D03*
X143750000Y-117850000D03*
G36*
G01*
X131275000Y-110643750D02*
X131275000Y-111156250D01*
G75*
G02*
X131056250Y-111375000I-218750J0D01*
G01*
X130618750Y-111375000D01*
G75*
G02*
X130400000Y-111156250I0J218750D01*
G01*
X130400000Y-110643750D01*
G75*
G02*
X130618750Y-110425000I218750J0D01*
G01*
X131056250Y-110425000D01*
G75*
G02*
X131275000Y-110643750I0J-218750D01*
G01*
G37*
G36*
G01*
X129700000Y-110643750D02*
X129700000Y-111156250D01*
G75*
G02*
X129481250Y-111375000I-218750J0D01*
G01*
X129043750Y-111375000D01*
G75*
G02*
X128825000Y-111156250I0J218750D01*
G01*
X128825000Y-110643750D01*
G75*
G02*
X129043750Y-110425000I218750J0D01*
G01*
X129481250Y-110425000D01*
G75*
G02*
X129700000Y-110643750I0J-218750D01*
G01*
G37*
G36*
G01*
X126874999Y-122665000D02*
X128725001Y-122665000D01*
G75*
G02*
X128975000Y-122914999I0J-249999D01*
G01*
X128975000Y-123740001D01*
G75*
G02*
X128725001Y-123990000I-249999J0D01*
G01*
X126874999Y-123990000D01*
G75*
G02*
X126625000Y-123740001I0J249999D01*
G01*
X126625000Y-122914999D01*
G75*
G02*
X126874999Y-122665000I249999J0D01*
G01*
G37*
G36*
G01*
X126874999Y-119590000D02*
X128725001Y-119590000D01*
G75*
G02*
X128975000Y-119839999I0J-249999D01*
G01*
X128975000Y-120665001D01*
G75*
G02*
X128725001Y-120915000I-249999J0D01*
G01*
X126874999Y-120915000D01*
G75*
G02*
X126625000Y-120665001I0J249999D01*
G01*
X126625000Y-119839999D01*
G75*
G02*
X126874999Y-119590000I249999J0D01*
G01*
G37*
G36*
G01*
X134074999Y-119587500D02*
X135925001Y-119587500D01*
G75*
G02*
X136175000Y-119837499I0J-249999D01*
G01*
X136175000Y-120662501D01*
G75*
G02*
X135925001Y-120912500I-249999J0D01*
G01*
X134074999Y-120912500D01*
G75*
G02*
X133825000Y-120662501I0J249999D01*
G01*
X133825000Y-119837499D01*
G75*
G02*
X134074999Y-119587500I249999J0D01*
G01*
G37*
G36*
G01*
X134074999Y-122662500D02*
X135925001Y-122662500D01*
G75*
G02*
X136175000Y-122912499I0J-249999D01*
G01*
X136175000Y-123737501D01*
G75*
G02*
X135925001Y-123987500I-249999J0D01*
G01*
X134074999Y-123987500D01*
G75*
G02*
X133825000Y-123737501I0J249999D01*
G01*
X133825000Y-122912499D01*
G75*
G02*
X134074999Y-122662500I249999J0D01*
G01*
G37*
G36*
G01*
X135370000Y-117153750D02*
X135370000Y-117666250D01*
G75*
G02*
X135151250Y-117885000I-218750J0D01*
G01*
X134713750Y-117885000D01*
G75*
G02*
X134495000Y-117666250I0J218750D01*
G01*
X134495000Y-117153750D01*
G75*
G02*
X134713750Y-116935000I218750J0D01*
G01*
X135151250Y-116935000D01*
G75*
G02*
X135370000Y-117153750I0J-218750D01*
G01*
G37*
G36*
G01*
X136945000Y-117153750D02*
X136945000Y-117666250D01*
G75*
G02*
X136726250Y-117885000I-218750J0D01*
G01*
X136288750Y-117885000D01*
G75*
G02*
X136070000Y-117666250I0J218750D01*
G01*
X136070000Y-117153750D01*
G75*
G02*
X136288750Y-116935000I218750J0D01*
G01*
X136726250Y-116935000D01*
G75*
G02*
X136945000Y-117153750I0J-218750D01*
G01*
G37*
G36*
G01*
X144653750Y-117545000D02*
X145166250Y-117545000D01*
G75*
G02*
X145385000Y-117763750I0J-218750D01*
G01*
X145385000Y-118201250D01*
G75*
G02*
X145166250Y-118420000I-218750J0D01*
G01*
X144653750Y-118420000D01*
G75*
G02*
X144435000Y-118201250I0J218750D01*
G01*
X144435000Y-117763750D01*
G75*
G02*
X144653750Y-117545000I218750J0D01*
G01*
G37*
G36*
G01*
X144653750Y-119120000D02*
X145166250Y-119120000D01*
G75*
G02*
X145385000Y-119338750I0J-218750D01*
G01*
X145385000Y-119776250D01*
G75*
G02*
X145166250Y-119995000I-218750J0D01*
G01*
X144653750Y-119995000D01*
G75*
G02*
X144435000Y-119776250I0J218750D01*
G01*
X144435000Y-119338750D01*
G75*
G02*
X144653750Y-119120000I218750J0D01*
G01*
G37*
G36*
G01*
X137336250Y-107870000D02*
X136823750Y-107870000D01*
G75*
G02*
X136605000Y-107651250I0J218750D01*
G01*
X136605000Y-107213750D01*
G75*
G02*
X136823750Y-106995000I218750J0D01*
G01*
X137336250Y-106995000D01*
G75*
G02*
X137555000Y-107213750I0J-218750D01*
G01*
X137555000Y-107651250D01*
G75*
G02*
X137336250Y-107870000I-218750J0D01*
G01*
G37*
G36*
G01*
X137336250Y-109445000D02*
X136823750Y-109445000D01*
G75*
G02*
X136605000Y-109226250I0J218750D01*
G01*
X136605000Y-108788750D01*
G75*
G02*
X136823750Y-108570000I218750J0D01*
G01*
X137336250Y-108570000D01*
G75*
G02*
X137555000Y-108788750I0J-218750D01*
G01*
X137555000Y-109226250D01*
G75*
G02*
X137336250Y-109445000I-218750J0D01*
G01*
G37*
G36*
G01*
X146575000Y-112506250D02*
X146575000Y-111993750D01*
G75*
G02*
X146793750Y-111775000I218750J0D01*
G01*
X147231250Y-111775000D01*
G75*
G02*
X147450000Y-111993750I0J-218750D01*
G01*
X147450000Y-112506250D01*
G75*
G02*
X147231250Y-112725000I-218750J0D01*
G01*
X146793750Y-112725000D01*
G75*
G02*
X146575000Y-112506250I0J218750D01*
G01*
G37*
G36*
G01*
X148150000Y-112506250D02*
X148150000Y-111993750D01*
G75*
G02*
X148368750Y-111775000I218750J0D01*
G01*
X148806250Y-111775000D01*
G75*
G02*
X149025000Y-111993750I0J-218750D01*
G01*
X149025000Y-112506250D01*
G75*
G02*
X148806250Y-112725000I-218750J0D01*
G01*
X148368750Y-112725000D01*
G75*
G02*
X148150000Y-112506250I0J218750D01*
G01*
G37*
G36*
G01*
X146575000Y-114006250D02*
X146575000Y-113493750D01*
G75*
G02*
X146793750Y-113275000I218750J0D01*
G01*
X147231250Y-113275000D01*
G75*
G02*
X147450000Y-113493750I0J-218750D01*
G01*
X147450000Y-114006250D01*
G75*
G02*
X147231250Y-114225000I-218750J0D01*
G01*
X146793750Y-114225000D01*
G75*
G02*
X146575000Y-114006250I0J218750D01*
G01*
G37*
G36*
G01*
X148150000Y-114006250D02*
X148150000Y-113493750D01*
G75*
G02*
X148368750Y-113275000I218750J0D01*
G01*
X148806250Y-113275000D01*
G75*
G02*
X149025000Y-113493750I0J-218750D01*
G01*
X149025000Y-114006250D01*
G75*
G02*
X148806250Y-114225000I-218750J0D01*
G01*
X148368750Y-114225000D01*
G75*
G02*
X148150000Y-114006250I0J218750D01*
G01*
G37*
G36*
G01*
X129700000Y-115843750D02*
X129700000Y-116356250D01*
G75*
G02*
X129481250Y-116575000I-218750J0D01*
G01*
X129043750Y-116575000D01*
G75*
G02*
X128825000Y-116356250I0J218750D01*
G01*
X128825000Y-115843750D01*
G75*
G02*
X129043750Y-115625000I218750J0D01*
G01*
X129481250Y-115625000D01*
G75*
G02*
X129700000Y-115843750I0J-218750D01*
G01*
G37*
G36*
G01*
X131275000Y-115843750D02*
X131275000Y-116356250D01*
G75*
G02*
X131056250Y-116575000I-218750J0D01*
G01*
X130618750Y-116575000D01*
G75*
G02*
X130400000Y-116356250I0J218750D01*
G01*
X130400000Y-115843750D01*
G75*
G02*
X130618750Y-115625000I218750J0D01*
G01*
X131056250Y-115625000D01*
G75*
G02*
X131275000Y-115843750I0J-218750D01*
G01*
G37*
G36*
G01*
X141493750Y-119045000D02*
X142006250Y-119045000D01*
G75*
G02*
X142225000Y-119263750I0J-218750D01*
G01*
X142225000Y-119701250D01*
G75*
G02*
X142006250Y-119920000I-218750J0D01*
G01*
X141493750Y-119920000D01*
G75*
G02*
X141275000Y-119701250I0J218750D01*
G01*
X141275000Y-119263750D01*
G75*
G02*
X141493750Y-119045000I218750J0D01*
G01*
G37*
G36*
G01*
X141493750Y-120620000D02*
X142006250Y-120620000D01*
G75*
G02*
X142225000Y-120838750I0J-218750D01*
G01*
X142225000Y-121276250D01*
G75*
G02*
X142006250Y-121495000I-218750J0D01*
G01*
X141493750Y-121495000D01*
G75*
G02*
X141275000Y-121276250I0J218750D01*
G01*
X141275000Y-120838750D01*
G75*
G02*
X141493750Y-120620000I218750J0D01*
G01*
G37*
G36*
G01*
X122366250Y-104945000D02*
X121853750Y-104945000D01*
G75*
G02*
X121635000Y-104726250I0J218750D01*
G01*
X121635000Y-104288750D01*
G75*
G02*
X121853750Y-104070000I218750J0D01*
G01*
X122366250Y-104070000D01*
G75*
G02*
X122585000Y-104288750I0J-218750D01*
G01*
X122585000Y-104726250D01*
G75*
G02*
X122366250Y-104945000I-218750J0D01*
G01*
G37*
G36*
G01*
X122366250Y-103370000D02*
X121853750Y-103370000D01*
G75*
G02*
X121635000Y-103151250I0J218750D01*
G01*
X121635000Y-102713750D01*
G75*
G02*
X121853750Y-102495000I218750J0D01*
G01*
X122366250Y-102495000D01*
G75*
G02*
X122585000Y-102713750I0J-218750D01*
G01*
X122585000Y-103151250D01*
G75*
G02*
X122366250Y-103370000I-218750J0D01*
G01*
G37*
G36*
G01*
X123866250Y-103370000D02*
X123353750Y-103370000D01*
G75*
G02*
X123135000Y-103151250I0J218750D01*
G01*
X123135000Y-102713750D01*
G75*
G02*
X123353750Y-102495000I218750J0D01*
G01*
X123866250Y-102495000D01*
G75*
G02*
X124085000Y-102713750I0J-218750D01*
G01*
X124085000Y-103151250D01*
G75*
G02*
X123866250Y-103370000I-218750J0D01*
G01*
G37*
G36*
G01*
X123866250Y-104945000D02*
X123353750Y-104945000D01*
G75*
G02*
X123135000Y-104726250I0J218750D01*
G01*
X123135000Y-104288750D01*
G75*
G02*
X123353750Y-104070000I218750J0D01*
G01*
X123866250Y-104070000D01*
G75*
G02*
X124085000Y-104288750I0J-218750D01*
G01*
X124085000Y-104726250D01*
G75*
G02*
X123866250Y-104945000I-218750J0D01*
G01*
G37*
G36*
G01*
X125366250Y-104945000D02*
X124853750Y-104945000D01*
G75*
G02*
X124635000Y-104726250I0J218750D01*
G01*
X124635000Y-104288750D01*
G75*
G02*
X124853750Y-104070000I218750J0D01*
G01*
X125366250Y-104070000D01*
G75*
G02*
X125585000Y-104288750I0J-218750D01*
G01*
X125585000Y-104726250D01*
G75*
G02*
X125366250Y-104945000I-218750J0D01*
G01*
G37*
G36*
G01*
X125366250Y-103370000D02*
X124853750Y-103370000D01*
G75*
G02*
X124635000Y-103151250I0J218750D01*
G01*
X124635000Y-102713750D01*
G75*
G02*
X124853750Y-102495000I218750J0D01*
G01*
X125366250Y-102495000D01*
G75*
G02*
X125585000Y-102713750I0J-218750D01*
G01*
X125585000Y-103151250D01*
G75*
G02*
X125366250Y-103370000I-218750J0D01*
G01*
G37*
G36*
G01*
X124783750Y-123560000D02*
X125296250Y-123560000D01*
G75*
G02*
X125515000Y-123778750I0J-218750D01*
G01*
X125515000Y-124216250D01*
G75*
G02*
X125296250Y-124435000I-218750J0D01*
G01*
X124783750Y-124435000D01*
G75*
G02*
X124565000Y-124216250I0J218750D01*
G01*
X124565000Y-123778750D01*
G75*
G02*
X124783750Y-123560000I218750J0D01*
G01*
G37*
G36*
G01*
X124783750Y-121985000D02*
X125296250Y-121985000D01*
G75*
G02*
X125515000Y-122203750I0J-218750D01*
G01*
X125515000Y-122641250D01*
G75*
G02*
X125296250Y-122860000I-218750J0D01*
G01*
X124783750Y-122860000D01*
G75*
G02*
X124565000Y-122641250I0J218750D01*
G01*
X124565000Y-122203750D01*
G75*
G02*
X124783750Y-121985000I218750J0D01*
G01*
G37*
D12*
X130300000Y-120250000D03*
X130300000Y-121200000D03*
X130300000Y-122150000D03*
X132500000Y-122150000D03*
X132500000Y-120250000D03*
X131600000Y-114450000D03*
X131600000Y-113500000D03*
X131600000Y-112550000D03*
X129400000Y-112550000D03*
X129400000Y-114450000D03*
X129400000Y-113500000D03*
D13*
X127000000Y-100810000D03*
X127000000Y-99540000D03*
X127000000Y-98270000D03*
D14*
X127000000Y-97000000D03*
X127000000Y-126200000D03*
D13*
X127000000Y-127470000D03*
X127000000Y-128740000D03*
X127000000Y-130010000D03*
G36*
G01*
X123273750Y-121985000D02*
X123786250Y-121985000D01*
G75*
G02*
X124005000Y-122203750I0J-218750D01*
G01*
X124005000Y-122641250D01*
G75*
G02*
X123786250Y-122860000I-218750J0D01*
G01*
X123273750Y-122860000D01*
G75*
G02*
X123055000Y-122641250I0J218750D01*
G01*
X123055000Y-122203750D01*
G75*
G02*
X123273750Y-121985000I218750J0D01*
G01*
G37*
G36*
G01*
X123273750Y-123560000D02*
X123786250Y-123560000D01*
G75*
G02*
X124005000Y-123778750I0J-218750D01*
G01*
X124005000Y-124216250D01*
G75*
G02*
X123786250Y-124435000I-218750J0D01*
G01*
X123273750Y-124435000D01*
G75*
G02*
X123055000Y-124216250I0J218750D01*
G01*
X123055000Y-123778750D01*
G75*
G02*
X123273750Y-123560000I218750J0D01*
G01*
G37*
G36*
G01*
X121783750Y-123560000D02*
X122296250Y-123560000D01*
G75*
G02*
X122515000Y-123778750I0J-218750D01*
G01*
X122515000Y-124216250D01*
G75*
G02*
X122296250Y-124435000I-218750J0D01*
G01*
X121783750Y-124435000D01*
G75*
G02*
X121565000Y-124216250I0J218750D01*
G01*
X121565000Y-123778750D01*
G75*
G02*
X121783750Y-123560000I218750J0D01*
G01*
G37*
G36*
G01*
X121783750Y-121985000D02*
X122296250Y-121985000D01*
G75*
G02*
X122515000Y-122203750I0J-218750D01*
G01*
X122515000Y-122641250D01*
G75*
G02*
X122296250Y-122860000I-218750J0D01*
G01*
X121783750Y-122860000D01*
G75*
G02*
X121565000Y-122641250I0J218750D01*
G01*
X121565000Y-122203750D01*
G75*
G02*
X121783750Y-121985000I218750J0D01*
G01*
G37*
G36*
G01*
X173225000Y-109653750D02*
X173225000Y-110566250D01*
G75*
G02*
X172981250Y-110810000I-243750J0D01*
G01*
X172493750Y-110810000D01*
G75*
G02*
X172250000Y-110566250I0J243750D01*
G01*
X172250000Y-109653750D01*
G75*
G02*
X172493750Y-109410000I243750J0D01*
G01*
X172981250Y-109410000D01*
G75*
G02*
X173225000Y-109653750I0J-243750D01*
G01*
G37*
G36*
G01*
X171350000Y-109653750D02*
X171350000Y-110566250D01*
G75*
G02*
X171106250Y-110810000I-243750J0D01*
G01*
X170618750Y-110810000D01*
G75*
G02*
X170375000Y-110566250I0J243750D01*
G01*
X170375000Y-109653750D01*
G75*
G02*
X170618750Y-109410000I243750J0D01*
G01*
X171106250Y-109410000D01*
G75*
G02*
X171350000Y-109653750I0J-243750D01*
G01*
G37*
G36*
G01*
X171340000Y-128153750D02*
X171340000Y-129066250D01*
G75*
G02*
X171096250Y-129310000I-243750J0D01*
G01*
X170608750Y-129310000D01*
G75*
G02*
X170365000Y-129066250I0J243750D01*
G01*
X170365000Y-128153750D01*
G75*
G02*
X170608750Y-127910000I243750J0D01*
G01*
X171096250Y-127910000D01*
G75*
G02*
X171340000Y-128153750I0J-243750D01*
G01*
G37*
G36*
G01*
X173215000Y-128153750D02*
X173215000Y-129066250D01*
G75*
G02*
X172971250Y-129310000I-243750J0D01*
G01*
X172483750Y-129310000D01*
G75*
G02*
X172240000Y-129066250I0J243750D01*
G01*
X172240000Y-128153750D01*
G75*
G02*
X172483750Y-127910000I243750J0D01*
G01*
X172971250Y-127910000D01*
G75*
G02*
X173215000Y-128153750I0J-243750D01*
G01*
G37*
D15*
X152390000Y-125730000D03*
D16*
X152390000Y-128270000D03*
X149850000Y-125730000D03*
X149850000Y-128270000D03*
X147310000Y-125730000D03*
X147310000Y-128270000D03*
X144770000Y-125730000D03*
X144770000Y-128270000D03*
D17*
X196000000Y-97000000D03*
X193460000Y-99540000D03*
X198540000Y-99540000D03*
X198540000Y-94460000D03*
X193460000Y-94460000D03*
X193460000Y-112960000D03*
X198540000Y-112960000D03*
X198540000Y-118040000D03*
X193460000Y-118040000D03*
X196000000Y-115500000D03*
D18*
X126845000Y-116750000D03*
X126845000Y-115950000D03*
X126845000Y-111050000D03*
X126845000Y-110250000D03*
X126845000Y-110250000D03*
X126845000Y-111050000D03*
X126845000Y-115950000D03*
X126845000Y-116750000D03*
D19*
X126845000Y-111750000D03*
X126845000Y-112250000D03*
X126845000Y-112750000D03*
X126845000Y-113750000D03*
X126845000Y-114250000D03*
X126845000Y-114750000D03*
X126845000Y-115250000D03*
X126845000Y-113250000D03*
D20*
X125930000Y-117820000D03*
X125930000Y-109180000D03*
D21*
X125400000Y-110610000D03*
D22*
X121750000Y-109180000D03*
D21*
X125400000Y-116390000D03*
D22*
X121750000Y-117820000D03*
D23*
X190650000Y-98500000D03*
X190650000Y-97000000D03*
X174550000Y-111375000D03*
X174550000Y-110105000D03*
X174550000Y-108835000D03*
X174550000Y-107565000D03*
X174550000Y-106295000D03*
X174550000Y-105025000D03*
X174550000Y-103755000D03*
X174550000Y-102485000D03*
X174550000Y-101215000D03*
X174550000Y-99945000D03*
X174550000Y-98675000D03*
X174550000Y-97405000D03*
X174550000Y-115905000D03*
X174550000Y-117175000D03*
X174550000Y-118445000D03*
X174550000Y-119715000D03*
X174550000Y-120985000D03*
X174550000Y-122255000D03*
X174550000Y-123525000D03*
X174550000Y-124795000D03*
X174550000Y-126065000D03*
X174550000Y-127335000D03*
X174550000Y-128605000D03*
X174550000Y-129875000D03*
X190650000Y-115500000D03*
X190650000Y-117000000D03*
M02*
