M48
; DRILL file {KiCad 5.1.8-db9833491~87~ubuntu20.04.1} date Thu Nov 19 11:04:06 2020
; FORMAT={-:-/ absolute / inch / decimal}
; #@! TF.CreationDate,2020-11-19T11:04:06+01:00
; #@! TF.GenerationSoftware,Kicad,Pcbnew,5.1.8-db9833491~87~ubuntu20.04.1
; #@! TF.FileFunction,Plated,1,2,PTH
FMAT,2
INCH
T1C0.0157
T2C0.0236
T3C0.0354
T4C0.0394
T5C0.0591
%
G90
G05
T1
X5.0315Y-4.374
X5.0315Y-4.563
X5.0315Y-4.8051
X5.0598Y-4.4716
X5.139Y-4.4685
X5.1744Y-4.7713
X5.1921Y-4.3657
X5.1921Y-4.5709
X5.3122Y-4.5799
X5.315Y-4.8051
X5.3335Y-4.676
X5.4138Y-4.6748
X5.4394Y-4.2299
X5.497Y-4.2348
X5.5167Y-4.1848
X5.6236Y-4.7657
X5.6626Y-4.7071
X5.6685Y-4.2346
X5.6772Y-4.439
X5.6878Y-4.185
X5.8898Y-4.4193
X5.8898Y-4.4783
X6.6839Y-5.0634
X6.684Y-4.3349
X6.8126Y-3.8348
X6.813Y-4.5632
T3
X5.0Y-3.8189
X5.0Y-3.8689
X5.0Y-3.9189
X5.0Y-3.9689
X5.0Y-4.9685
X5.0Y-5.0185
X5.0Y-5.0685
X5.0Y-5.1185
T4
X5.6996Y-4.95
X5.6996Y-5.05
X5.7996Y-4.95
X5.7996Y-5.05
X5.8996Y-4.95
X5.8996Y-5.05
X5.9996Y-4.95
X5.9996Y-5.05
T5
X7.6165Y-4.4472
X7.6165Y-4.6472
X7.7165Y-4.5472
X7.8165Y-4.4472
X7.8165Y-4.6472
X7.6165Y-3.7189
X7.6165Y-3.9189
X7.7165Y-3.8189
X7.8165Y-3.7189
X7.8165Y-3.9189
T2
G00X4.8051Y-4.2984
M15
G01X4.7815Y-4.2984
M16
G05
G00X4.8051Y-4.6386
M15
G01X4.7815Y-4.6386
M16
G05
G00X4.9795Y-4.2984
M15
G01X4.9362Y-4.2984
M16
G05
G00X4.9795Y-4.6386
M15
G01X4.9362Y-4.6386
M16
G05
T0
M30
